<svg xmlns="http://www.w3.org/2000/svg" width="114.423" height="38.386" viewBox="0 0 114.423 38.386">
  <defs>
    <style>
      .cls-1 {
        fill: #ff1243;
      }
    </style>
  </defs>
  <g id="Group_2477" data-name="Group 2477" transform="translate(-1075.335 -528.614)">
    <path id="Path_62" data-name="Path 62" class="cls-1" d="M44.338-415.339a4.244,4.244,0,0,1-1.828.3q-3.351,0-3.351-3.96v-21.63a4.97,4.97,0,0,1,3.656-5.179l19.193-7.312a4.243,4.243,0,0,1,1.828-.3q3.351,0,3.351,3.96v22.544a5.29,5.29,0,0,1-3.656,5.179Z" transform="translate(1036.176 982.034)"/>
    <path id="Path_595" data-name="Path 595" d="M2.307-1.963a.315.315,0,0,1-.231-.1.315.315,0,0,1-.1-.231V-20.45a.338.338,0,0,1,.245-.354l1.062-.408a.3.3,0,0,1,.136-.027q.218,0,.218.3V-2.289q0,.327-.3.327Zm10.047.327A6.217,6.217,0,0,1,9.1-2.507,6.109,6.109,0,0,1,6.813-4.944a7.524,7.524,0,0,1-.83-3.58,7.173,7.173,0,0,1,.9-3.635A6.161,6.161,0,0,1,9.25-14.542a6.4,6.4,0,0,1,3.158-.817,5.912,5.912,0,0,1,2.845.681,4.591,4.591,0,0,1,1.892,1.8v-1.552a.338.338,0,0,1,.245-.354l1.062-.408a.3.3,0,0,1,.136-.027.2.2,0,0,1,.15.082.289.289,0,0,1,.068.191V-2.289a.315.315,0,0,1-.1.231.315.315,0,0,1-.231.1H17.446q-.3,0-.3-.327V-4.114a4.863,4.863,0,0,1-1.92,1.77A5.883,5.883,0,0,1,12.354-1.636ZM12.436-3.3A4.639,4.639,0,0,0,15.8-4.6a5.227,5.227,0,0,0,1.348-3.921,5.89,5.89,0,0,0-.64-2.859,4.269,4.269,0,0,0-1.715-1.756,4.847,4.847,0,0,0-2.355-.585,4.783,4.783,0,0,0-2.342.6,4.489,4.489,0,0,0-1.756,1.783,5.653,5.653,0,0,0-.667,2.818,5.653,5.653,0,0,0,.667,2.818,4.586,4.586,0,0,0,1.756,1.8A4.7,4.7,0,0,0,12.436-3.3ZM28.173-1.636A5.883,5.883,0,0,1,25.3-2.344a4.863,4.863,0,0,1-1.92-1.77v1.824q0,.327-.3.327H22.047a.315.315,0,0,1-.231-.1.315.315,0,0,1-.1-.231V-20.478a.367.367,0,0,1,.245-.354l1.062-.381a.3.3,0,0,1,.136-.027q.218,0,.218.272v8.114a4.792,4.792,0,0,1,1.92-1.8,5.883,5.883,0,0,1,2.873-.708,6.43,6.43,0,0,1,3.2.817,5.937,5.937,0,0,1,2.314,2.369,7.426,7.426,0,0,1,.858,3.649,7.259,7.259,0,0,1-.871,3.567,6.376,6.376,0,0,1-2.328,2.451A6.068,6.068,0,0,1,28.173-1.636ZM28.092-3.3a4.7,4.7,0,0,0,2.342-.613,4.586,4.586,0,0,0,1.756-1.8,5.653,5.653,0,0,0,.667-2.818,5.653,5.653,0,0,0-.667-2.818,4.489,4.489,0,0,0-1.756-1.783,4.783,4.783,0,0,0-2.342-.6,4.769,4.769,0,0,0-2.342.585,4.382,4.382,0,0,0-1.715,1.756,5.789,5.789,0,0,0-.653,2.859A5.227,5.227,0,0,0,24.729-4.6,4.639,4.639,0,0,0,28.092-3.3Z" transform="translate(1155.213 558.931)"/>
    <path id="Path_596" data-name="Path 596" d="M2.117-8.283a.256.256,0,0,1-.29-.29v-1q0-.316.29-.316h7.5a.3.3,0,0,1,.224.092.3.3,0,0,1,.092.224v1q0,.29-.316.29Z" transform="translate(1143.585 559.1)"/>
    <path id="Path_591" data-name="Path 591" class="cls-1" d="M8.831-5.923A7.646,7.646,0,0,1,5.106-6.81,6.369,6.369,0,0,1,2.581-9.267a6.973,6.973,0,0,1-.9-3.535,6.973,6.973,0,0,1,.9-3.535,6.369,6.369,0,0,1,2.525-2.457,7.646,7.646,0,0,1,3.726-.887A6.171,6.171,0,0,1,13.2-18.233a.569.569,0,0,1,.218.437.679.679,0,0,1-.082.3L12.3-15.8a.448.448,0,0,1-.355.246.47.47,0,0,1-.3-.109,4.819,4.819,0,0,0-1.256-.71,4.258,4.258,0,0,0-1.5-.246A3.683,3.683,0,0,0,6.1-15.545,3.8,3.8,0,0,0,5.065-12.8a3.8,3.8,0,0,0,1.024,2.77,3.725,3.725,0,0,0,2.8,1.051,4.344,4.344,0,0,0,1.529-.246,4.819,4.819,0,0,0,1.256-.71.527.527,0,0,1,.273-.082.463.463,0,0,1,.382.246l1.01,1.665a.859.859,0,0,1,.109.3.55.55,0,0,1-.191.382,4.956,4.956,0,0,1-1.924,1.119A7.936,7.936,0,0,1,8.831-5.923Zm13.648,0A7.188,7.188,0,0,1,18.9-6.81a6.254,6.254,0,0,1-2.457-2.457,7.144,7.144,0,0,1-.873-3.535,7.144,7.144,0,0,1,.873-3.535A6.254,6.254,0,0,1,18.9-18.793a7.188,7.188,0,0,1,3.576-.887,7.188,7.188,0,0,1,3.576.887,6.254,6.254,0,0,1,2.457,2.457,7.144,7.144,0,0,1,.873,3.535,7.144,7.144,0,0,1-.873,3.535A6.254,6.254,0,0,1,26.054-6.81,7.188,7.188,0,0,1,22.479-5.923Zm0-3.057a3.321,3.321,0,0,0,2.62-1.078,3.983,3.983,0,0,0,.955-2.743,3.983,3.983,0,0,0-.955-2.743,3.321,3.321,0,0,0-2.62-1.078,3.321,3.321,0,0,0-2.62,1.078A3.983,3.983,0,0,0,18.9-12.8a3.983,3.983,0,0,0,.955,2.743A3.321,3.321,0,0,0,22.479-8.98Z" transform="translate(1112.557 562.816)"/>
  </g>
</svg>
