<svg xmlns="http://www.w3.org/2000/svg" width="109" height="44.697" viewBox="0 0 109 44.697"><g transform="translate(-1436 -1650)"><g transform="translate(1436 1676.382)"><path d="M102.492,81.264a.3.3,0,0,0-.449-.193c-.193.128-3.981,2.376-3.981,2.376V81.392c0-.257-.128-.321-.385-.257l-1.22.449a.352.352,0,0,0-.257.385v9.181a.3.3,0,0,0,.321.321h1.22a.3.3,0,0,0,.321-.321V85.5s4.494-2.761,4.687-2.889.257-.193.193-.385a3.931,3.931,0,0,1-.449-.963" transform="translate(-34.434 -77.395)" fill="#ff1243"/><path d="M9.952,85.687A4.481,4.481,0,0,0,5.265,81,5.125,5.125,0,0,0,0,86.393a5.038,5.038,0,0,0,5.393,5.329,6.383,6.383,0,0,0,4.238-1.541.4.4,0,0,0,.064-.449l-.578-.9c-.128-.193-.257-.193-.449-.064a5.327,5.327,0,0,1-3.21,1.156A3.274,3.274,0,0,1,1.99,86.779H9.7a.3.3,0,0,0,.321-.321v-.77Zm-7.9-.578A3.065,3.065,0,0,1,5.2,82.734a2.447,2.447,0,0,1,2.761,2.376Z" transform="translate(0 -77.388)" fill="#ff1243"/><path d="M26.66,95.7h1.22a.3.3,0,0,0,.321-.321v-14c0-.257-.128-.321-.385-.257l-1.22.449a.352.352,0,0,0-.257.385v.449A4.164,4.164,0,0,0,23,81a5.147,5.147,0,0,0-5.2,5.393c0,2.889,1.862,5.393,5.136,5.393A4.588,4.588,0,0,0,26.4,90.374v5.072c-.064.128.064.257.257.257M23,89.925a3.274,3.274,0,0,1-3.339-3.6A3.22,3.22,0,0,1,23,82.8a3.571,3.571,0,0,1,0,7.127" transform="translate(-6.371 -77.388)" fill="#ff1243"/><path d="M41.109,91.781a3.575,3.575,0,0,0,3.082-1.541V91.2a.3.3,0,0,0,.321.321h1.22a.3.3,0,0,0,.321-.321V81.444c0-.257-.128-.321-.385-.257l-1.22.449a.352.352,0,0,0-.257.385v5.136a2.613,2.613,0,0,1-2.761,2.825A2.519,2.519,0,0,1,38.8,87.158V81.444c0-.257-.128-.321-.385-.257l-1.22.449a.388.388,0,0,0-.193.385v5.2c0,3.018,1.8,4.559,4.109,4.559" transform="translate(-13.244 -77.446)" fill="#ff1243"/><g transform="translate(34.928)"><path d="M54.785,78.023l1.284-.449a.407.407,0,0,0,.321-.385V75.648c0-.193-.128-.321-.385-.257l-1.284.449c-.193.064-.321.128-.321.385V77.7c0,.257.128.449.385.321" transform="translate(-54.4 -75.374)" fill="#ff1243"/><path d="M54.821,91.524h1.22a.3.3,0,0,0,.321-.321V81.444c0-.257-.128-.321-.385-.257l-1.22.449a.352.352,0,0,0-.257.385V91.2a.3.3,0,0,0,.321.321" transform="translate(-54.436 -77.446)" fill="#ff1243"/></g><path d="M61.148,91.465h1.22a.3.3,0,0,0,.321-.321V85.623A2.613,2.613,0,0,1,65.449,82.8a2.518,2.518,0,0,1,2.632,2.825v5.522a.3.3,0,0,0,.321.321h1.22a.3.3,0,0,0,.321-.321V85.559c0-3.018-1.862-4.559-4.109-4.559a3.575,3.575,0,0,0-3.082,1.541V81.449c0-.257-.128-.321-.385-.257l-1.22.449a.352.352,0,0,0-.257.385v9.181c-.064.128.064.257.257.257" transform="translate(-21.79 -77.388)" fill="#ff1243"/><path d="M82.565,81a5.395,5.395,0,1,0,5.265,5.393A5.126,5.126,0,0,0,82.565,81m0,8.925a3.605,3.605,0,1,1,3.339-3.6,3.306,3.306,0,0,1-3.339,3.6" transform="translate(-27.669 -77.388)" fill="#ff1243"/></g><path d="M111.453,45.6l-2.825,1.669a.12.12,0,0,1-.193,0l-2.889-1.605a.182.182,0,0,1,0-.321l2.825-1.669a.12.12,0,0,1,.193,0l2.825,1.605c.193.064.193.257.064.321" transform="translate(1427.255 1634.372)" fill="#ff1243"/><path d="M104.453,58.455l-2.825-1.605c-.064-.064-.064-.128-.128-.193V53.383c0-.128.128-.257.257-.193l2.825,1.669a.236.236,0,0,1,.064.193v3.274c.128.128-.064.193-.193.128" transform="translate(1428.669 1630.954)" fill="#ff1243"/><path d="M87.5,60.213V55.847c0-.064.064-.193.128-.193l1.477-.835,2.311-1.348a.235.235,0,0,1,.385.193V58.03c0,.064-.064.193-.128.193l-3.788,2.183a.235.235,0,0,1-.385-.193" transform="translate(1433.68 1630.866)" fill="#ff1243"/><path d="M71.188,44.348l5.65-3.274a.409.409,0,0,1,.385,0l5.714,3.21a.364.364,0,0,1,0,.642L77.223,48.2a.409.409,0,0,1-.385,0l-5.714-3.21a.394.394,0,0,1,.064-.642" transform="translate(1439.591 1635.303)" fill="#ff1243"/><path d="M78.563,12.444l9.374,5.522a.674.674,0,0,1,.321.578V29.458a.639.639,0,0,1-.963.578L77.921,24.45a.674.674,0,0,1-.321-.578V12.957a.623.623,0,0,1,.963-.514" transform="translate(1437.224 1645.57)" fill="#ff1243"/><path d="M116.009.906V16.7a.891.891,0,0,1-.449.77l-6.613,3.917L102.013,25.5a.919.919,0,0,1-1.413-.77V8.931a.891.891,0,0,1,.449-.77L114.661.2a.84.84,0,0,1,1.348.706" transform="translate(1428.991 1649.981)" fill="#ff1243"/></g></svg>