<svg xmlns="http://www.w3.org/2000/svg" width="112.324" height="28.207" viewBox="0 0 112.324 28.207">
  <g id="TDI_CO-LAB_4" transform="translate(-276.6 -271)">
    <g id="Group_10" data-name="Group 10" transform="translate(276.6 273.821)">
      <path id="Path_1" data-name="Path 1" d="M287.805,308.486a.672.672,0,0,1-.348.541,8.222,8.222,0,0,1-1.43.541,6.671,6.671,0,0,1-1.623.193,4.975,4.975,0,0,1-4.057-1.546,6.181,6.181,0,0,1-1.275-4.018V296.16h-1.855c-.425,0-.618-.232-.618-.657v-2.434a.537.537,0,0,1,.618-.618h1.855v-2.4a.709.709,0,0,1,.5-.734l2.9-1.043.27-.077a.5.5,0,0,1,.386.155.779.779,0,0,1,.116.425v3.555h2.937a.537.537,0,0,1,.618.618v2.434c0,.464-.193.657-.618.657h-2.937v7.419a2.8,2.8,0,0,0,.386,1.623,1.5,1.5,0,0,0,1.352.58,3.416,3.416,0,0,0,1.236-.27.89.89,0,0,1,.348-.116c.232,0,.386.155.5.464l.734,2.434Z" transform="translate(-276.6 -284.375)" fill="#ff1243"/>
      <path id="Path_2" data-name="Path 2" d="M313.925,302.45a7.492,7.492,0,0,1-2.859-3.246,10.151,10.151,0,0,1-.966-4.482,9.616,9.616,0,0,1,1.121-4.675,7.841,7.841,0,0,1,3.014-3.13,8.427,8.427,0,0,1,4.289-1.082,7.914,7.914,0,0,1,3.207.618,4.94,4.94,0,0,1,2.125,1.623v-7.921a.776.776,0,0,1,.541-.734l2.9-1.082a.573.573,0,0,1,.271-.039q.464,0,.464.58v23.686a.537.537,0,0,1-.618.618h-2.859a.734.734,0,0,1-.5-.193.64.64,0,0,1-.193-.464v-1.159a5.944,5.944,0,0,1-2.164,1.584,7.787,7.787,0,0,1-3.207.618A7.934,7.934,0,0,1,313.925,302.45Zm8.617-3.98a5.948,5.948,0,0,0,0-7.457,4.631,4.631,0,0,0-3.478-1.314,4.571,4.571,0,0,0-3.4,1.314,5.894,5.894,0,0,0,0,7.419,4.6,4.6,0,0,0,3.4,1.352A4.69,4.69,0,0,0,322.542,298.47Z" transform="translate(-297.156 -278.3)" fill="#ff1243"/>
      <g id="Group_9" data-name="Group 9" transform="translate(44.242 6.491)">
        <path id="Path_3" data-name="Path 3" d="M394.268,321.949a6.46,6.46,0,0,1-2.318-2.357,7.072,7.072,0,0,1,0-6.723,5.727,5.727,0,0,1,2.28-2.318,6.353,6.353,0,0,1,3.323-.85,6.624,6.624,0,0,1,4.018,1.236c.155.116.155.232.077.425l-.5.85c-.116.155-.232.193-.386.077a4.023,4.023,0,0,0-1.391-.734,5.6,5.6,0,0,0-1.7-.27,5.2,5.2,0,0,0-2.627.657,4.8,4.8,0,0,0-1.739,1.777,5.4,5.4,0,0,0-.58,2.55,5.088,5.088,0,0,0,.618,2.55,4.527,4.527,0,0,0,1.739,1.777,5.2,5.2,0,0,0,2.627.657,4.747,4.747,0,0,0,3.13-1.082c.039-.039.077-.039.193-.039a.234.234,0,0,1,.232.116l.425.811c.077.155.116.27.039.348a6.937,6.937,0,0,1-1.777,1,6.776,6.776,0,0,1-2.4.425A6.846,6.846,0,0,1,394.268,321.949Z" transform="translate(-391.1 -304.059)" fill="#233746"/>
        <path id="Path_4" data-name="Path 4" d="M424.614,322.01a5.772,5.772,0,0,1-2.2-2.318,7.369,7.369,0,0,1,0-6.723,5.8,5.8,0,0,1,2.2-2.318,6.036,6.036,0,0,1,3.207-.85,5.81,5.81,0,0,1,3.168.85,6.342,6.342,0,0,1,2.2,2.318,7.369,7.369,0,0,1,0,6.723,5.8,5.8,0,0,1-2.2,2.318,5.9,5.9,0,0,1-3.168.85A6.036,6.036,0,0,1,424.614,322.01Zm5.564-1.391a4.5,4.5,0,0,0,1.623-1.777,5.4,5.4,0,0,0,.58-2.55,5.507,5.507,0,0,0-.58-2.55,4.258,4.258,0,0,0-1.623-1.777,4.532,4.532,0,0,0-6.453,1.777,5.9,5.9,0,0,0,0,5.1,4.5,4.5,0,0,0,1.623,1.777,4.585,4.585,0,0,0,2.434.657A4.137,4.137,0,0,0,430.178,320.619Z" transform="translate(-409.815 -304.12)" fill="#233746"/>
        <path id="Path_5" data-name="Path 5" d="M460.9,326.314v-1c0-.193.077-.309.27-.309h4.869a.549.549,0,0,1,.232.077c.077.077.077.116.077.232v1c0,.193-.116.27-.309.27h-4.869C460.977,326.623,460.9,326.507,460.9,326.314Z" transform="translate(-433.93 -313.447)" fill="#233746"/>
        <path id="Path_6" data-name="Path 6" d="M483.777,313.415c-.077-.077-.077-.116-.077-.232v-17.31a.371.371,0,0,1,.232-.348l1-.386c.039,0,.077-.039.116-.039.155,0,.193.077.193.27v17.774c0,.193-.077.309-.27.309h-1C483.932,313.531,483.855,313.492,483.777,313.415Z" transform="translate(-447.92 -295.1)" fill="#233746"/>
        <path id="Path_7" data-name="Path 7" d="M498.175,321.949a5.462,5.462,0,0,1-2.164-2.318,7.021,7.021,0,0,1-.811-3.4,6.825,6.825,0,0,1,.85-3.478,6.05,6.05,0,0,1,2.241-2.28,5.843,5.843,0,0,1,3.014-.773,5.714,5.714,0,0,1,2.7.657,4.553,4.553,0,0,1,1.816,1.7v-1.468a.371.371,0,0,1,.232-.348l1-.386c.039,0,.077-.039.116-.039a.268.268,0,0,1,.232.27V322.18a.548.548,0,0,1-.077.232c-.077.077-.116.077-.232.077h-1c-.193,0-.27-.116-.27-.309v-1.739a4.848,4.848,0,0,1-1.816,1.7,5.439,5.439,0,0,1-2.743.657A5.729,5.729,0,0,1,498.175,321.949Zm6.414-1.971a5.061,5.061,0,0,0,1.275-3.748,5.537,5.537,0,0,0-.618-2.743,4.2,4.2,0,0,0-1.623-1.661,4.763,4.763,0,0,0-4.482.039,4.4,4.4,0,0,0-1.661,1.7,5.384,5.384,0,0,0-.618,2.7,5.484,5.484,0,0,0,.618,2.7,4.4,4.4,0,0,0,1.661,1.7,4.506,4.506,0,0,0,2.241.58A4.7,4.7,0,0,0,504.589,319.978Z" transform="translate(-454.977 -304.059)" fill="#233746"/>
        <path id="Path_8" data-name="Path 8" d="M539.2,313.145a4.564,4.564,0,0,1-1.816-1.7v1.739c0,.193-.077.309-.271.309h-1a.549.549,0,0,1-.232-.077c-.077-.077-.077-.116-.077-.232V295.834a.371.371,0,0,1,.232-.348l1-.348c.039,0,.077-.039.116-.039.155,0,.193.077.193.27V303.1a4.313,4.313,0,0,1,1.816-1.7,5.44,5.44,0,0,1,2.743-.657,6.284,6.284,0,0,1,3.052.773,5.591,5.591,0,0,1,2.2,2.241,7.116,7.116,0,0,1,.811,3.478,6.635,6.635,0,0,1-.85,3.4,6.069,6.069,0,0,1-2.2,2.318,5.916,5.916,0,0,1-3.014.85A5.02,5.02,0,0,1,539.2,313.145Zm4.907-1.468a4.4,4.4,0,0,0,1.661-1.7,5.385,5.385,0,0,0,.618-2.7,5.485,5.485,0,0,0-.618-2.7,4.4,4.4,0,0,0-1.661-1.7,4.507,4.507,0,0,0-2.241-.58,4.919,4.919,0,0,0-2.241.541A4.2,4.2,0,0,0,538,304.489a5.438,5.438,0,0,0-.618,2.743,5.061,5.061,0,0,0,1.275,3.748,4.338,4.338,0,0,0,3.207,1.236A4.106,4.106,0,0,0,544.107,311.676Z" transform="translate(-479.889 -295.1)" fill="#233746"/>
      </g>
    </g>
    <g id="Group_11" data-name="Group 11" transform="translate(311.762 271)">
      <path id="Path_9" data-name="Path 9" d="M368.141,276.68a.448.448,0,0,1-.386-.155.7.7,0,0,1-.155-.425v-3.168a.742.742,0,0,1,.541-.734l3.207-1.121c.155-.039.232-.077.27-.077a.377.377,0,0,1,.348.155.779.779,0,0,1,.116.425v3.207a.712.712,0,0,1-.541.734l-3.168,1.082C368.334,276.68,368.218,276.68,368.141,276.68Zm-.232,21.87a.64.64,0,0,1-.193-.464v-14.76a.742.742,0,0,1,.541-.734l2.9-1c.155-.039.232-.077.27-.077a.377.377,0,0,1,.348.155.779.779,0,0,1,.116.425v16a.64.64,0,0,1-.193.464.668.668,0,0,1-.5.193h-2.859A.62.62,0,0,1,367.909,298.55Z" transform="translate(-367.6 -271)" fill="#ff1243"/>
    </g>
  </g>
</svg>
