<svg xmlns="http://www.w3.org/2000/svg" width="26.706" height="30.521" viewBox="0 0 26.706 30.521"><g transform="translate(-33 1)"><g transform="translate(33 -1)"><g transform="translate(0 0)"><path d="M146,159.557A6.557,6.557,0,1,0,152.557,153,6.565,6.565,0,0,0,146,159.557Zm10.73,0a4.172,4.172,0,0,1-6.157,3.67l5.654-5.654A4.147,4.147,0,0,1,156.73,159.557Zm-7.843,1.984a4.172,4.172,0,0,1,5.654-5.654Z" transform="translate(-139.204 -143.879)"/><path d="M57.993,5.466,45.773.1a1.192,1.192,0,0,0-.963,0l-12.1,5.365A1.192,1.192,0,0,0,32,6.558v9.419a15.355,15.355,0,0,0,3.859,9.983,13.944,13.944,0,0,0,4.227,3.294,11.693,11.693,0,0,0,5.267,1.268,12.086,12.086,0,0,0,7.14-2.374,1.192,1.192,0,1,0-1.4-1.928,9.718,9.718,0,0,1-5.737,1.918c-5.741,0-10.969-5.8-10.969-12.161V7.333L45.3,2.5,56.322,7.336v8.64A12.623,12.623,0,0,1,54.5,22.4a1.192,1.192,0,1,0,2.05,1.218,15.007,15.007,0,0,0,2.159-7.643V6.558A1.192,1.192,0,0,0,57.993,5.466Z" transform="translate(-32 0)"/></g></g></g></svg>