<svg xmlns="http://www.w3.org/2000/svg" width="20.834" height="24.417" viewBox="0 0 20.834 24.417">
  <defs>
    <style>
      .cls-1 {
        fill: #007079;
      }
    </style>
  </defs>
  <g id="Group_11810" data-name="Group 11810" transform="translate(-315.833 -66.793)">
    <path id="Path_8782" data-name="Path 8782" class="cls-1" d="M2.362,1.2A1.162,1.162,0,1,0,3.523,2.362,1.163,1.163,0,0,0,2.362,1.2m0-1.2A2.362,2.362,0,1,1,0,2.362,2.362,2.362,0,0,1,2.362,0Z" transform="translate(328.466 81.465)"/>
    <path id="Path_8785" data-name="Path 8785" class="cls-1" d="M5.79,1.2a4.55,4.55,0,1,0,4.59,4.55A4.575,4.575,0,0,0,5.79,1.2m0-1.2A5.75,5.75,0,1,1,0,5.75,5.77,5.77,0,0,1,5.79,0Z" transform="translate(325.087 79.71)"/>
    <path id="Union_28" data-name="Union 28" class="cls-1" d="M-4097.062-2757.587H-4111a1,1,0,0,1-1-1v-20.4a1,1,0,0,1,1-1h3.551v-.479h2.112a1.7,1.7,0,0,1,1.829-1.535,1.7,1.7,0,0,1,1.829,1.535h2.116v.479h3.427a1,1,0,0,1,1,1v10.19a5.757,5.757,0,0,1,3.969,5.459,5.761,5.761,0,0,1-4.428,5.591.991.991,0,0,1-.542.159h-.926Zm-13.738-1.2h10.55q-.239-.164-.459-.351a5.57,5.57,0,0,1,.81-2.022,3.864,3.864,0,0,1,2.888-1.356v0h.11v0a3.867,3.867,0,0,1,2.889,1.356,3.957,3.957,0,0,1,.464.869q.1-.1.184-.215a4.48,4.48,0,0,0,1-2.833,4.547,4.547,0,0,0-3.144-4.319l-.827-.271v-10.858h-4.427v-.479h-2.116v-1.2c0-.118-.238-.334-.628-.334s-.628.217-.628.334v1.2h-2.112v.479h-4.551Zm13.835-2.528a2.712,2.712,0,0,0-1.966.866,3.069,3.069,0,0,0-.4.827,4.618,4.618,0,0,0,2.375.656,4.631,4.631,0,0,0,2.375-.656,3.119,3.119,0,0,0-.4-.827,2.717,2.717,0,0,0-1.968-.866h-.009Z" transform="translate(4427.834 2848.793)"/>
    <path id="Path_8780" data-name="Path 8780" class="cls-1" d="M6.687,2.828V2.735H4.572v-1.2c0-.118-.239-.335-.629-.335s-.629.217-.629.335v1.2H1.2v.093H6.687m1.2,1.2H0V1.535H2.114A1.7,1.7,0,0,1,3.943,0,1.7,1.7,0,0,1,5.772,1.535H7.887Z" transform="translate(320.384 66.82)"/>
    <path id="Path_8624" data-name="Path 8624" class="cls-1" d="M15,.6H8A.6.6,0,0,1,7.4,0,.6.6,0,0,1,8-.6h7a.6.6,0,0,1,.6.6A.6.6,0,0,1,15,.6Z" transform="translate(312.5 73.507)"/>
    <path id="Path_8777" data-name="Path 8777" class="cls-1" d="M.5,0A.5.5,0,1,1,0,.5.5.5,0,0,1,.5,0Z" transform="translate(317.837 73.007)"/>
    <path id="Path_8625" data-name="Path 8625" class="cls-1" d="M15,.6H8A.6.6,0,0,1,7.4,0,.6.6,0,0,1,8-.6h7a.6.6,0,0,1,.6.6A.6.6,0,0,1,15,.6Z" transform="translate(312.5 76.507)"/>
    <path id="Path_8778" data-name="Path 8778" class="cls-1" d="M.5,0A.5.5,0,1,1,0,.5.5.5,0,0,1,.5,0Z" transform="translate(317.837 76.007)"/>
    <path id="Path_8626" data-name="Path 8626" class="cls-1" d="M15,.6H8A.6.6,0,0,1,7.4,0,.6.6,0,0,1,8-.6h7a.6.6,0,0,1,.6.6A.6.6,0,0,1,15,.6Z" transform="translate(312.5 79.507)"/>
    <path id="Path_8779" data-name="Path 8779" class="cls-1" d="M.5,0A.5.5,0,1,1,0,.5.5.5,0,0,1,.5,0Z" transform="translate(317.837 79.007)"/>
  </g>
</svg>
