<svg xmlns="http://www.w3.org/2000/svg" width="16" height="16" viewBox="0 0 16 16">
  <g id="Group_13925" data-name="Group 13925" transform="translate(-1438.341 -201.341)">
    <g id="Ellipse_2474" data-name="Ellipse 2474" transform="translate(1438.341 201.341)" fill="#007079" stroke="#007079" stroke-width="1.5">
      <circle cx="8" cy="8" r="8" stroke="none"/>
      <circle cx="8" cy="8" r="7.25" fill="none"/>
    </g>
    <g id="Group_13908" data-name="Group 13908" transform="translate(1443.415 205.505)">
      <g id="Group_13907" data-name="Group 13907" transform="translate(0 -0.664)">
        <path id="Path_9275" data-name="Path 9275" d="M6.248-6.5a.217.217,0,0,1,.16.058.217.217,0,0,1,.058.16v.816a.217.217,0,0,1-.058.16.217.217,0,0,1-.16.058H4.34v1.908a.217.217,0,0,1-.058.16.217.217,0,0,1-.16.058H3.306a.217.217,0,0,1-.16-.058.217.217,0,0,1-.058-.16V-5.244H1.179a.217.217,0,0,1-.16-.058.217.217,0,0,1-.058-.16v-.816a.217.217,0,0,1,.058-.16.217.217,0,0,1,.16-.058H3.087V-8.405a.217.217,0,0,1,.058-.16.217.217,0,0,1,.16-.058h.816a.217.217,0,0,1,.16.058.217.217,0,0,1,.058.16V-6.5Z" transform="translate(-0.96 8.624)" fill="#fff"/>
      </g>
      <path id="Path_9276" data-name="Path 9276" d="M1.179-4.4a.217.217,0,0,1-.16-.058.217.217,0,0,1-.058-.16v-.816a.217.217,0,0,1,.058-.16.217.217,0,0,1,.16-.058h4.05a.217.217,0,0,1,.16.058.217.217,0,0,1,.058.16v.816a.217.217,0,0,1-.058.16.217.217,0,0,1-.16.058Z" transform="translate(-0.505 12)" fill="#fff"/>
    </g>
  </g>
</svg>
