<svg xmlns="http://www.w3.org/2000/svg" width="24" height="24" viewBox="0 0 24 24">
<path class="changeable-fill" d="M195.4,47.1a12,12,0,1,0,12,12A12.02,12.02,0,0,0,195.4,47.1Zm0,22a10,10,0,1,1,10.08-10A10.054,10.054,0,0,1,195.4,69.1Z" transform="translate(-183.4 -47.1)" fill="#007079"/>
<path class="changeable-fill" d="M199.983,57.852h-3.667v-3.6a.917.917,0,1,0-1.833,0v3.6h-3.667a.949.949,0,0,0,0,1.9h3.667v3.6a.917.917,0,1,0,1.833,0v-3.6h3.667a.881.881,0,0,0,.917-.948A.934.934,0,0,0,199.983,57.852Z" transform="translate(-183.4 -46.759)" fill="#007079"/>
</svg>