<svg xmlns="http://www.w3.org/2000/svg" width="43.468" height="31.451" viewBox="0 0 43.468 31.451"><defs><style>.book{fill:#243746;fill-rule:evenodd;}</style></defs><path class="book" d="M19.2,18.887A44.186,44.186,0,0,0,7.751,20.508a1.012,1.012,0,0,0-.75.977V49.327a1,1,0,0,0,.116.47,1.035,1.035,0,0,0,.322.363,1,1,0,0,0,.454.17.979.979,0,0,0,.482-.061c6.83-2.624,13.442-3,20.007-.055a1.03,1.03,0,0,0,.367.087,1,1,0,0,0,.373-.053c7.079-2.435,13.713-2.569,19.95.012A1.013,1.013,0,0,0,50.35,49.8a1.029,1.029,0,0,0,.118-.476V21.483a1.01,1.01,0,0,0-.744-.973,41.67,41.67,0,0,0-20.935-.077A29.379,29.379,0,0,0,19.2,18.887Zm-.016,2.02a27.593,27.593,0,0,1,8.536,1.3V47.76c-6.168-2.324-12.465-2.006-18.7.126V22.269a41.471,41.471,0,0,1,10.166-1.36Zm20.124.245a36.678,36.678,0,0,1,9.136,1.112v25.6c-5.937-2.079-12.234-1.933-18.7.059V22.287a44.045,44.045,0,0,1,9.566-1.135Z" transform="translate(-7.001 -18.887)"/></svg>