<svg xmlns="http://www.w3.org/2000/svg" width="23.217" height="20.637" viewBox="0 0 23.217 20.637"><path d="M31.847,20.537H27.978v-1.29A2.58,2.58,0,0,0,25.4,16.668h-2.58a2.579,2.579,0,0,0-2.579,2.579v1.29H16.37A3.869,3.869,0,0,0,12.5,24.407v9.029h0A3.869,3.869,0,0,0,16.37,37.3H31.847a3.869,3.869,0,0,0,3.869-3.869V24.407a3.869,3.869,0,0,0-3.869-3.869Zm-10.318-1.29a1.291,1.291,0,0,1,1.289-1.29H25.4a1.291,1.291,0,0,1,1.289,1.29v1.29H21.529Zm12.9,14.188a2.583,2.583,0,0,1-2.579,2.58H16.37a2.583,2.583,0,0,1-2.579-2.58V28.276h7.739a1.288,1.288,0,0,0,1.289,1.289H25.4a1.288,1.288,0,0,0,1.289-1.289h7.739Zm0-6.449H26.688A1.29,1.29,0,0,0,25.4,25.7h-2.58a1.29,1.29,0,0,0-1.289,1.29H13.79V24.407a2.583,2.583,0,0,1,2.579-2.58H31.847a2.583,2.583,0,0,1,2.579,2.58Z" transform="translate(-12.5 -16.668)" fill="#007079"/></svg>