<svg xmlns="http://www.w3.org/2000/svg" width="20.08" height="20" viewBox="0 0 20.08 20"><path d="M19.98,108.193h0V104.5a2.566,2.566,0,0,0-.884-1.928,2.8,2.8,0,0,0-2.008-.723H14.84V100.8a.8.8,0,1,0-1.606,0v1.044H6.727V100.8a.759.759,0,0,0-.8-.8.759.759,0,0,0-.8.8v1.044H2.792a3.085,3.085,0,0,0-2.008.723A2.725,2.725,0,0,0-.1,104.5v12.851a2.566,2.566,0,0,0,.884,1.928A2.8,2.8,0,0,0,2.792,120h14.3a3.085,3.085,0,0,0,2.008-.723,2.725,2.725,0,0,0,.884-1.928v-9.157ZM1.908,103.775a1.684,1.684,0,0,1,.884-.321H5.041V104.5a.759.759,0,0,0,.8.8.759.759,0,0,0,.8-.8v-1.044h6.586V104.5a.8.8,0,1,0,1.606,0v-1.044h2.249a1.284,1.284,0,0,1,.884.321.981.981,0,0,1,.321.723v2.892H1.587V104.5A.981.981,0,0,1,1.908,103.775Zm16.145,14.3a1.684,1.684,0,0,1-.884.321H2.792a1.284,1.284,0,0,1-.884-.321.73.73,0,0,1-.321-.643V109H18.374v8.434A.73.73,0,0,1,18.053,118.072Z" transform="translate(0.1 -100)" fill="#007079"/></svg>