<svg xmlns="http://www.w3.org/2000/svg" width="25.398" height="25.397" viewBox="0 0 25.398 25.397"><path d="M22.779,37.663a5.262,5.262,0,0,1-7.442-7.442l5.457-5.457a5.274,5.274,0,0,1,7.442,0,1.052,1.052,0,1,1-1.488,1.488,3.127,3.127,0,0,0-4.465,0l-5.457,5.457a3.157,3.157,0,0,0,4.465,4.465L26.5,30.965a1.052,1.052,0,1,1,1.488,1.488l-5.209,5.209Zm9.426-9.426a5.274,5.274,0,0,1-7.442,0,1.052,1.052,0,1,1,1.488-1.488,3.127,3.127,0,0,0,4.465,0L33.262,24.2l2.91-2.91a3.157,3.157,0,0,0-4.465-4.465L26.5,22.036a1.052,1.052,0,1,1-1.488-1.488l5.209-5.209a5.262,5.262,0,0,1,7.442,7.442l-5.457,5.457Z" transform="translate(-13.801 -13.803)" fill="#007079"/></svg>