<svg xmlns="http://www.w3.org/2000/svg" width="23" height="20.388" viewBox="0 0 23 20.388"><g transform="translate(-614 -1059.935)"><path d="M11.7,11a.541.541,0,0,0-.474.523v6.273a.543.543,0,0,0,.523.523h5.227v2.875H9.136a.393.393,0,0,0-.049,0,.541.541,0,0,0-.474.523v3.4H6.522a.392.392,0,0,0-.049,0A.541.541,0,0,0,6,25.635v5.227a.543.543,0,0,0,.523.523H11.75a.543.543,0,0,0,.523-.523V25.635a.543.543,0,0,0-.523-.523H9.659V22.237h7.318v2.875H14.886a.543.543,0,0,0-.523.523v5.227a.543.543,0,0,0,.523.523h5.227a.543.543,0,0,0,.523-.523V25.635a.541.541,0,0,0-.474-.523.392.392,0,0,0-.049,0H18.022V22.237h7.318v2.875H23.25a.543.543,0,0,0-.523.523v5.227a.543.543,0,0,0,.523.523h5.227A.543.543,0,0,0,29,30.862V25.635a.541.541,0,0,0-.474-.523.392.392,0,0,0-.049,0H26.386v-3.4a.543.543,0,0,0-.523-.523H18.022V18.316H23.25a.543.543,0,0,0,.523-.523V11.521A.543.543,0,0,0,23.25,11H11.75A.392.392,0,0,0,11.7,11Zm.572,1.045H22.727v5.227H12.272ZM7.045,26.157h4.182v4.182H7.045Zm8.364,0h4.182v4.182H15.409Zm8.364,0h4.182v4.182H23.773Z" transform="translate(608 1048.938)" fill="#007079"/><rect width="6" height="5" rx="1" transform="translate(614 1075)" fill="#007079"/><rect width="6" height="5" rx="1" transform="translate(631 1075)" fill="#007079"/><rect width="5" height="5" transform="translate(623 1075)" fill="#007079"/></g></svg>