<svg xmlns="http://www.w3.org/2000/svg" width="15" height="15" viewBox="0 0 25 25" preserveAspectRatio="xMidYMid meet"><path d="M290.7,46.7a12.5,12.5,0,1,0,12.5,12.5A12.5,12.5,0,0,0,290.7,46.7Zm0,23a10.5,10.5,0,1,1,10.5-10.5A10.5,10.5,0,0,1,290.7,69.7Z" transform="translate(-278.2 -46.7)" fill="#FFFFFF"/><path d="M295.1,54.7a.967.967,0,0,0-1.4,0l-3,3-3-3a.99.99,0,0,0-1.4,1.4l3,3-3,3a.99.99,0,0,0,1.4,1.4l3-3,3,3a.99.99,0,1,0,1.4-1.4l-3-3,3-3A.965.965,0,0,0,295.1,54.7Z" transform="translate(-278.2 -46.7)" fill="#FFFFFF"/></svg>