<svg xmlns="http://www.w3.org/2000/svg" width="24.023" height="22.224" viewBox="0 0 24.023 22.224"><path d="M16.821,18.034a.6.6,0,0,0-.328.16,3.573,3.573,0,0,0-.9,1.519,3.6,3.6,0,0,0-1.53.91.624.624,0,0,0,0,.816,3.608,3.608,0,0,0,1.53.91,3.542,3.542,0,0,0,.9,1.519.623.623,0,0,0,.826,0,3.561,3.561,0,0,0,.9-1.519,3.6,3.6,0,0,0,1.53-.91.624.624,0,0,0,0-.816,3.608,3.608,0,0,0-1.53-.91,3.573,3.573,0,0,0-.9-1.519A.61.61,0,0,0,16.821,18.034Zm10.21,0a.6.6,0,0,0-.328.16,3.573,3.573,0,0,0-.9,1.519,3.6,3.6,0,0,0-1.53.91.624.624,0,0,0,0,.816,3.608,3.608,0,0,0,1.53.91,3.542,3.542,0,0,0,.9,1.519.623.623,0,0,0,.826,0,3.561,3.561,0,0,0,.9-1.519,3.6,3.6,0,0,0,1.53-.91.624.624,0,0,0,0-.816,3.608,3.608,0,0,0-1.53-.91,3.573,3.573,0,0,0-.9-1.519A.61.61,0,0,0,27.031,18.034ZM16.9,19.6a2.833,2.833,0,0,1,.272.713.616.616,0,0,0,.441.45,2.833,2.833,0,0,1,.713.272,2.833,2.833,0,0,1-.713.272.613.613,0,0,0-.441.441,2.833,2.833,0,0,1-.272.713,2.833,2.833,0,0,1-.272-.713.613.613,0,0,0-.441-.441,2.833,2.833,0,0,1-.713-.272,2.833,2.833,0,0,1,.713-.272.614.614,0,0,0,.441-.45A2.833,2.833,0,0,1,16.9,19.6Zm10.21,0a2.833,2.833,0,0,1,.272.713.616.616,0,0,0,.441.45,2.833,2.833,0,0,1,.713.272,2.833,2.833,0,0,1-.713.272.613.613,0,0,0-.441.441,2.833,2.833,0,0,1-.272.713,2.833,2.833,0,0,1-.272-.713.613.613,0,0,0-.441-.441,2.833,2.833,0,0,1-.713-.272,2.833,2.833,0,0,1,.713-.272.614.614,0,0,0,.441-.45A2.833,2.833,0,0,1,27.115,19.6Zm-5.189,2.636a.6.6,0,0,0-.328.16,4.336,4.336,0,0,0-1.117,1.9,4.358,4.358,0,0,0-1.914,1.125.624.624,0,0,0,0,.816,4.358,4.358,0,0,0,1.914,1.125,4.336,4.336,0,0,0,1.117,1.9.623.623,0,0,0,.826,0,4.336,4.336,0,0,0,1.117-1.9,4.375,4.375,0,0,0,1.914-1.125.624.624,0,0,0,0-.816A4.358,4.358,0,0,0,23.54,24.3a4.336,4.336,0,0,0-1.117-1.9A.61.61,0,0,0,21.926,22.236Zm-9.76.638a1.589,1.589,0,0,0-1.512,1.16,1.906,1.906,0,0,0-.055.246l-.6,6.6a.451.451,0,0,0,0,.056,3.3,3.3,0,0,0,1.06,2.2l.028.028a51.264,51.264,0,0,1,3.988,3.667L14.8,39.576A.6.6,0,0,0,16,39.7l.3-3a.608.608,0,0,0-.122-.422,36.366,36.366,0,0,0-4.242-3.948l-.028-.028a2.2,2.2,0,0,1-.713-1.36V30.93c.208-2.165.378-4.359.6-6.508.11-.73.908-.211.9-.15q-.146,2.861-.3,5.73a.61.61,0,0,0,.2.479l2.7,2.4a.6.6,0,1,0,.807-.89l-2.252-2.007a.594.594,0,0,0,.047-.216,1.1,1.1,0,0,1,.422-.863c.2-.124.37-.16.694.094,1.026.85,2.111,1.672,3.191,2.429a4.264,4.264,0,0,1,1.211,1.059,6.133,6.133,0,0,1,.488,2.655v4.5a.6.6,0,1,0,1.2,0v-4.5a5.647,5.647,0,0,0-.713-3.357A5.518,5.518,0,0,0,18.9,30.444c-1.272-.922-2.21-1.626-3.125-2.382a1.821,1.821,0,0,0-2.065-.178c.057-1.193.143-2.461.185-3.626a1.425,1.425,0,0,0-1.424-1.382,2.1,2.1,0,0,0-.31,0Zm19.377,0a1.425,1.425,0,0,0-1.424,1.378c.045,1.166.122,2.435.185,3.629a1.821,1.821,0,0,0-2.065.178c-1.009.836-2.084,1.652-3.125,2.382a5.538,5.538,0,0,0-1.492,1.341,5.648,5.648,0,0,0-.713,3.357v4.5a.6.6,0,1,0,1.2,0v-4.5a6.133,6.133,0,0,1,.488-2.655,4.246,4.246,0,0,1,1.211-1.059C27.1,30.491,28.067,29.768,29,29c.325-.253.5-.218.694-.094a1.1,1.1,0,0,1,.422.863.594.594,0,0,0,.047.216L27.912,31.99a.6.6,0,1,0,.807.89l2.7-2.4a.61.61,0,0,0,.2-.479c-.1-1.91-.2-3.823-.3-5.73-.016-.118.758-.518.9.15.213,2.15.4,4.343.6,6.508v.009a2.2,2.2,0,0,1-.713,1.36l-.028.028a36.384,36.384,0,0,0-4.242,3.948.607.607,0,0,0-.122.422l.3,3a.6.6,0,0,0,1.2-.122l-.272-2.739a51.078,51.078,0,0,1,3.988-3.667l.028-.028a3.3,3.3,0,0,0,1.06-2.2.45.45,0,0,0,0-.056l-.6-6.6a1.59,1.59,0,0,0-.055-.246,1.645,1.645,0,0,0-1.822-1.16Zm-9.535.937A3.437,3.437,0,0,1,22.5,24.9a.616.616,0,0,0,.441.45,3.458,3.458,0,0,1,1.1.488,3.446,3.446,0,0,1-1.1.479.614.614,0,0,0-.441.45,3.44,3.44,0,0,1-.488,1.1,3.464,3.464,0,0,1-.488-1.1.616.616,0,0,0-.441-.45,3.445,3.445,0,0,1-1.1-.479,3.473,3.473,0,0,1,1.1-.488.614.614,0,0,0,.441-.45A3.425,3.425,0,0,1,22.009,23.812Z" transform="translate(-9.998 -18.029)" fill="#007079"/></svg>