<svg xmlns="http://www.w3.org/2000/svg" width="22.554" height="22.554" viewBox="0 0 22.554 22.554"><path d="M33.452,12.251A.344.344,0,0,0,33.34,12a.326.326,0,0,0-.241-.1H12.251a.34.34,0,0,0-.353.353V33.1a.326.326,0,0,0,.1.241.344.344,0,0,0,.254.113H33.1a.39.39,0,0,0,.353-.353V12.251m-.707.353V32.745H12.6V12.6H32.745m-7.759,9.81a2.49,2.49,0,0,0-.763-1.824,2.464,2.464,0,0,0-1.809-.749,2.556,2.556,0,0,0-2.573,2.573,2.464,2.464,0,0,0,.749,1.809,2.49,2.49,0,0,0,1.824.763,2.606,2.606,0,0,0,2.572-2.572Z" transform="translate(-11.398 -11.398)" fill="#007079" stroke="#007079" stroke-width="1"/></svg>