<svg xmlns="http://www.w3.org/2000/svg" width="63.997" height="24.619" viewBox="0 0 63.997 24.619"><defs><style>.connect{fill:#243746;}</style></defs><path class="connect" d="M56.689,32.69A12.312,12.312,0,0,0,44.412,44.381h-14.8V34.887a2.2,2.2,0,0,0-2.2-2.2H7.2a2.2,2.2,0,0,0-2.2,2.2V55.111a2.2,2.2,0,0,0,2.2,2.2H27.418a2.2,2.2,0,0,0,2.2-2.2l0-8.883h14.83A12.308,12.308,0,1,0,56.689,32.689ZM27.768,55.109a.352.352,0,0,1-.35.35H7.2a.352.352,0,0,1-.35-.35V34.887a.352.352,0,0,1,.35-.35H27.418a.352.352,0,0,1,.35.35v9.5h-9.23a.922.922,0,0,0,0,1.844h9.23Zm28.921.35a10.474,10.474,0,0,1-10.383-9.23H57.92a.922.922,0,1,0,0-1.844H46.259a10.455,10.455,0,1,1,10.43,11.074Z" transform="translate(-4.999 -32.689)"/></svg>