<svg xmlns="http://www.w3.org/2000/svg" width="17.388" height="21.409" viewBox="0 0 17.388 21.409">
  <path id="Path_8758" data-name="Path 8758" d="M1.421,6.372V18.725a2.766,2.766,0,0,0,.735,1.908,2.469,2.469,0,0,0,1.791.775h9.486a2.468,2.468,0,0,0,1.791-.775,2.766,2.766,0,0,0,.735-1.908V6.372a1.915,1.915,0,0,0-.491-3.766H12.9V1.979A1.969,1.969,0,0,0,10.917,0H6.465a1.969,1.969,0,0,0-1.986,1.98v.627H1.912a1.915,1.915,0,0,0-.491,3.766ZM13.434,20.4H3.948a1.588,1.588,0,0,1-1.524-1.68V6.416H14.958V18.725A1.588,1.588,0,0,1,13.434,20.4ZM5.482,1.979A.966.966,0,0,1,6.465,1h4.452a.966.966,0,0,1,.983.978v.627H5.482ZM1.912,3.609H15.469a.9.9,0,1,1,0,1.8H1.912a.9.9,0,1,1,0-1.8Zm0,0" transform="translate(0.003 0.001)" fill="#fff"/>
</svg>
