<svg xmlns="http://www.w3.org/2000/svg" width="17.909" height="21.909" viewBox="0 0 17.909 21.909">
  <g class="changeable-stroke" id="Group_12008" data-name="Group 12008" transform="translate(-287.607 -149.75)">
    <path id="Path_8756" data-name="Path 8756" d="M222.9,154.7a.5.5,0,0,0-.5.5v9.476a.5.5,0,0,0,1,0V155.2A.5.5,0,0,0,222.9,154.7Zm0,0" transform="translate(76.621 2.91)" fill="#007079" stroke="#007079" stroke-width="0.5"/>
    <path id="Path_8757" data-name="Path 8757" d="M104.9,154.7a.5.5,0,0,0-.5.5v9.476a.5.5,0,1,0,1,0V155.2A.5.5,0,0,0,104.9,154.7Zm0,0" transform="translate(188.703 2.91)" fill="#007079" stroke="#007079" stroke-width="0.5"/>
    <path id="Path_8758" data-name="Path 8758" d="M1.421,6.372V18.725a2.766,2.766,0,0,0,.735,1.908,2.469,2.469,0,0,0,1.791.775h9.486a2.468,2.468,0,0,0,1.791-.775,2.766,2.766,0,0,0,.735-1.908V6.372a1.915,1.915,0,0,0-.491-3.766H12.9V1.979A1.969,1.969,0,0,0,10.917,0H6.465a1.969,1.969,0,0,0-1.986,1.98v.627H1.912a1.915,1.915,0,0,0-.491,3.766ZM13.434,20.4H3.948a1.588,1.588,0,0,1-1.524-1.68V6.416H14.958V18.725A1.588,1.588,0,0,1,13.434,20.4ZM5.482,1.979A.966.966,0,0,1,6.465,1h4.452a.966.966,0,0,1,.983.978v.627H5.482ZM1.912,3.609H15.469a.9.9,0,1,1,0,1.8H1.912a.9.9,0,1,1,0-1.8Zm0,0" transform="translate(287.871 150.001)" fill="#007079" stroke="#007079" stroke-width="0.5"/>
    <path id="Path_8759" data-name="Path 8759" d="M163.9,154.7a.5.5,0,0,0-.5.5v9.476a.5.5,0,0,0,1,0V155.2A.5.5,0,0,0,163.9,154.7Zm0,0" transform="translate(132.662 2.91)" fill="#007079" stroke="#007079" stroke-width="0.5"/>
  </g>
</svg>
