<svg xmlns="http://www.w3.org/2000/svg" width="20.3" height="24.8" viewBox="0 0 20.3 24.8">
    <path d="M498,8.7c-.1-.1-.1-.2-.2-.3L491,1.6h0c-.1-.1-.2-.2-.3-.2a.6.6,0,0,0-.4-.1h-9.1a3.329,3.329,0,0,0-3.3,3.3V22.8a3.329,3.329,0,0,0,3.3,3.3h13.7a3.329,3.329,0,0,0,3.3-3.3V9.1C498.1,8.9,498,8.8,498,8.7Zm-6.8-4,3.4,3.4h-3.4ZM494.8,24H481.1a1.324,1.324,0,0,1-1.3-1.3V4.5a1.324,1.324,0,0,1,1.3-1.3h8.1V9a1.025,1.025,0,0,0,1,1H496V22.7A1.135,1.135,0,0,1,494.8,24Z" transform="translate(-477.9 -1.3)" class="changeable-fill" fill="#007079"/>
    <path d="M492.5,13.8h-9.1a1,1,0,0,0,0,2h9.1a1,1,0,0,0,0-2Z" transform="translate(-477.9 -1.3)" class="changeable-fill" fill="#007079"/>
    <path d="M492.5,18.3h-9.1a1,1,0,0,0,0,2h9.1a.945.945,0,0,0,1-1A1,1,0,0,0,492.5,18.3Z" transform="translate(-477.9 -1.3)" class="changeable-fill" fill="#007079"/>
    <path d="M483.4,11.2h2.2a.945.945,0,0,0,1-1,.945.945,0,0,0-1-1h-2.2a.945.945,0,0,0-1,1A.945.945,0,0,0,483.4,11.2Z" transform="translate(-477.9 -1.3)" class="changeable-fill" fill="#007079"/>
</svg>
