<svg xmlns="http://www.w3.org/2000/svg" width="15.207" height="15.999" viewBox="0 0 15.207 15.999"><defs><style>.docx_a{fill:#fff;}.docx_b{fill:#979593;}.docx_c{fill:#c8c6c4;}.docx_d{fill:#185abd;}</style></defs><g transform="translate(-8 -6.8)"><path class="docx_a" d="M33,7h-7.62A.379.379,0,0,0,25,7.379v14.8a.379.379,0,0,0,.379.379h11a.379.379,0,0,0,.379-.379V10.761a.379.379,0,0,0-.111-.268L33.268,7.111A.379.379,0,0,0,33,7Z" transform="translate(-13.775 0.022)"/><path class="docx_b" d="M25.4,6.8h7.62a.6.6,0,0,1,.425.176l3.382,3.382a.6.6,0,0,1,.176.425V22.2a.6.6,0,0,1-.6.6h-11a.6.6,0,0,1-.6-.6V7.4A.6.6,0,0,1,25.4,6.8Zm11,15.554a.157.157,0,0,0,.157-.157V10.783a.156.156,0,0,0-.046-.111L33.133,7.291a.156.156,0,0,0-.111-.046H25.4a.157.157,0,0,0-.157.157V22.2a.157.157,0,0,0,.157.157Z" transform="translate(-13.798)"/><path class="docx_b" d="M70.816,11.016H67.4a.6.6,0,0,1-.6-.6V7h.445v3.414a.157.157,0,0,0,.157.157h3.414Z" transform="translate(-47.831 0.022)"/><path class="docx_c" d="M53.88,44.794H48v-.379h5.88a.19.19,0,0,1,.19.19h0A.19.19,0,0,1,53.88,44.794Zm0-1.138H48v-.379h5.88a.19.19,0,0,1,.19.19h0A.19.19,0,0,1,53.88,43.656Zm0-1.138H48v-.379h5.88a.19.19,0,0,1,.19.19h0A.19.19,0,0,1,53.88,42.517Zm0-1.138H48V41h5.88a.19.19,0,0,1,.19.19h0A.19.19,0,0,1,53.88,41.379Zm0,4.552H48v-.379h5.88a.19.19,0,0,1,.19.19h0A.19.19,0,0,1,53.88,45.932Z" transform="translate(-32.413 -27.528)"/><path class="docx_d" d="M8.759,41.587h6.07a.759.759,0,0,0,.759-.759v-6.07A.759.759,0,0,0,14.829,34H8.759A.759.759,0,0,0,8,34.759v6.07A.759.759,0,0,0,8.759,41.587Z" transform="translate(0 -21.856)"/><path class="docx_a" d="M15.446,47.157q.019.149.025.259h.014q.009-.1.033-.253t.048-.25L16.237,44H17.1l.694,2.869a4.176,4.176,0,0,1,.087.541H17.9a4.165,4.165,0,0,1,.072-.524L18.522,44h.789l-.971,4.173h-.922l-.662-2.765q-.029-.119-.065-.311t-.045-.279h-.012q-.012.1-.045.3t-.053.3l-.621,2.756H14.98L14,44h.8l.6,2.919Q15.427,47.009,15.446,47.157Z" transform="translate(-4.862 -29.959)"/></g></svg>
