<svg xmlns="http://www.w3.org/2000/svg" width="8" height="9" viewBox="0 0 8 9"><defs><style>.a{fill:#007079;}</style></defs><path class="a" d="M5,4a.908.908,0,0,1-.3.7l-3,3a.967.967,0,0,1-1.4,0,.967.967,0,0,1,0-1.4L2.6,4,.3,1.7A.967.967,0,0,1,.3.3.967.967,0,0,1,1.7.3h0l3,3A.908.908,0,0,1,5,4Z" transform="translate(0 9) rotate(-90)"/><path class="a" d="M5,4a.908.908,0,0,1-.3.7l-3,3a.967.967,0,0,1-1.4,0,.967.967,0,0,1,0-1.4L2.6,4,.3,1.7A.967.967,0,0,1,.3.3.967.967,0,0,1,1.7.3h0l3,3A.908.908,0,0,1,5,4Z" transform="translate(0 5) rotate(-90)"/></svg>