<svg xmlns="http://www.w3.org/2000/svg" width="8" height="9" viewBox="0 0 8 9"><defs><style>.a{fill:#007079;}</style></defs><g transform="translate(-586 -24)"><path class="a" d="M5,4a.908.908,0,0,0-.3-.7l-3-3A.967.967,0,0,0,.3.3a.967.967,0,0,0,0,1.4L2.6,4,.3,6.3a.967.967,0,0,0,0,1.4.967.967,0,0,0,1.4,0h0l3-3A.908.908,0,0,0,5,4Z" transform="translate(594 24) rotate(90)"/><path class="a" d="M5,4a.908.908,0,0,0-.3-.7l-3-3A.967.967,0,0,0,.3.3a.967.967,0,0,0,0,1.4L2.6,4,.3,6.3a.967.967,0,0,0,0,1.4.967.967,0,0,0,1.4,0h0l3-3A.908.908,0,0,0,5,4Z" transform="translate(594 28) rotate(90)"/></g></svg>