<svg xmlns="http://www.w3.org/2000/svg" width="8" height="15" viewBox="0 0 8 15"><defs><style>.a{fill:#007079;}</style></defs><g transform="translate(-837.5 -406.5)"><path class="a" style="stroke-width: 0px;" d="M5,4a.908.908,0,0,0-.3-.7l-3-3A.967.967,0,0,0,.3.3a.967.967,0,0,0,0,1.4L2.6,4,.3,6.3a.967.967,0,0,0,0,1.4.967.967,0,0,0,1.4,0h0l3-3A.908.908,0,0,0,5,4Z" transform="translate(845.5 415.5) rotate(90)"/><path class="a" style="stroke-width: 0px;" d="M5,4a.908.908,0,0,1-.3.7l-3,3a.967.967,0,0,1-1.4,0,.967.967,0,0,1,0-1.4L2.6,4,.3,1.7A.967.967,0,0,1,.3.3.967.967,0,0,1,1.7.3h0l3,3A.908.908,0,0,1,5,4Z" transform="translate(837.5 412.5) rotate(-90)"/></g></svg>