<svg xmlns="http://www.w3.org/2000/svg" xmlns:xlink="http://www.w3.org/1999/xlink" width="16" height="14.857" viewBox="0 0 16 14.857"><defs><style>.excel_a{fill:#185c37;}.excel_b{fill:#21a366;}.excel_c{fill:#107c41;}.excel_d{opacity:0.1;}.excel_e{opacity:0.2;}.excel_f{fill:url(#excel_id_a);}.excel_g{fill:#fff;}.excel_h{fill:#33c481;}</style><linearGradient id="excel_id_a" x1="0.174" y1="-146.919" x2="0.826" y2="-145.787" gradientUnits="objectBoundingBox"><stop offset="0" stop-color="#18884f"/><stop offset="0.5" stop-color="#117e43"/><stop offset="1" stop-color="#0b6631"/></linearGradient></defs><g transform="translate(-2 -3)"><path class="excel_a" d="M14.837,14.514,8.512,13.4v8.234a.681.681,0,0,0,.682.681H20.108a.681.681,0,0,0,.683-.681h0V18.6Z" transform="translate(-2.791 -4.457)"/><path class="excel_b" d="M14.837,3H9.194a.681.681,0,0,0-.682.681h0V6.714l6.325,3.714,3.349,1.114,2.6-1.114V6.714Z" transform="translate(-2.791 0)"/><path class="excel_c" d="M8.512,9.5h6.325v3.714H8.512Z" transform="translate(-2.791 -2.786)"/><path class="excel_d" d="M13.039,8.2H8.512v9.286h4.527a.686.686,0,0,0,.682-.681V8.881A.686.686,0,0,0,13.039,8.2Z" transform="translate(-2.791 -2.229)"/><path class="excel_e" d="M12.667,8.85H8.512v9.286h4.155a.686.686,0,0,0,.682-.681V9.531a.686.686,0,0,0-.682-.681Z" transform="translate(-2.791 -2.507)"/><path class="excel_e" d="M12.667,8.85H8.512v8.543h4.155a.686.686,0,0,0,.682-.681V9.531a.686.686,0,0,0-.682-.681Z" transform="translate(-2.791 -2.507)"/><path class="excel_e" d="M12.295,8.85H8.512v8.543h3.783a.686.686,0,0,0,.682-.681V9.531A.686.686,0,0,0,12.295,8.85Z" transform="translate(-2.791 -2.507)"/><path class="excel_f" d="M2.682,8.85H9.5a.682.682,0,0,1,.682.681v6.81a.682.682,0,0,1-.682.681H2.682A.681.681,0,0,1,2,16.341V9.531a.681.681,0,0,1,.682-.681Z" transform="translate(0 -2.507)"/><path class="excel_g" d="M5.7,16.553l1.435-2.219L5.821,12.127H6.876l.717,1.413a2.748,2.748,0,0,1,.136.3h.01c.047-.107.1-.211.149-.312l.767-1.4h.971L8.278,14.324,9.66,16.555H8.626L7.8,15.006a1.346,1.346,0,0,1-.1-.209H7.686a.965.965,0,0,1-.1.2l-.853,1.555Z" transform="translate(-1.586 -3.912)"/><path class="excel_h" d="M24.852,3H19.581V6.714h5.954V3.681A.681.681,0,0,0,24.852,3Z" transform="translate(-7.535 0)"/><path class="excel_c" d="M19.581,16h5.954v3.714H19.581Z" transform="translate(-7.535 -5.571)"/></g></svg>
