<svg xmlns="http://www.w3.org/2000/svg" width="21.438" height="16" viewBox="0 0 21.438 16"><defs><style>.exit-group-a{fill:#fff;}.exit-group-b{fill:#0d7079;}.exit-group-c{fill:#007079;}</style></defs><g transform="translate(-1420.5 -1132.5)"><rect class="exit-group-a" width="15" height="16" rx="2" transform="translate(1420.5 1132.5)"/><path class="exit-group-b" d="M2,1A1,1,0,0,0,1,2V14a1,1,0,0,0,1,1H13a1,1,0,0,0,1-1V2a1,1,0,0,0-1-1H2M2,0H13a2,2,0,0,1,2,2V14a2,2,0,0,1-2,2H2a2,2,0,0,1-2-2V2A2,2,0,0,1,2,0Z" transform="translate(1420.5 1132.5)"/><path class="exit-group-c" d="M49.8,9.342a.665.665,0,0,0-.068.006H44.9a.615.615,0,1,0,0,1.23h3.436L40.771,18.14h0a.615.615,0,1,0,.87.87L49.2,11.449v3.436h0a.615.615,0,1,0,1.23,0V10.042a.616.616,0,0,0-.627-.7Z" transform="translate(1412.879 1098.228) rotate(45)"/></g></svg>
