<svg xmlns="http://www.w3.org/2000/svg" width="28" height="28" viewBox="0 0 28 28">
    <g transform="translate(-580 -700)">
        <rect width="11" height="2" transform="translate(593 723)" class="changeable-fill" fill="#007079"/>
        <rect width="13" height="2" transform="translate(582 703)" class="changeable-fill" fill="#007079"/>
        <rect width="2" height="20" transform="translate(593 704)" class="changeable-fill" fill="#007079"/>
        <g transform="translate(580 700)" fill="#eaf4f9">
            <path d="M 4 7 C 2.345789909362793 7 1 5.654210090637207 1 4 C 1 2.345789909362793 2.345789909362793 1 4 1 C 5.654210090637207 1 7 2.345789909362793 7 4 C 7 5.654210090637207 5.654210090637207 7 4 7 Z" stroke="none"/>
            <path d="M 4 2 C 2.897200107574463 2 2 2.897200107574463 2 4 C 2 5.102799892425537 2.897200107574463 6 4 6 C 5.102799892425537 6 6 5.102799892425537 6 4 C 6 2.897200107574463 5.102799892425537 2 4 2 M 4 0 C 6.209139823913574 0 8 1.790860176086426 8 4 C 8 6.209139823913574 6.209139823913574 8 4 8 C 1.790860176086426 8 0 6.209139823913574 0 4 C 0 1.790860176086426 1.790860176086426 0 4 0 Z" stroke="none" class="changeable-fill" fill="#007079"/>
        </g>
        <g transform="translate(590 710)" fill="#eaf4f9">
            <path d="M 4 7 C 2.345789909362793 7 1 5.654210090637207 1 4 C 1 2.345789909362793 2.345789909362793 1 4 1 C 5.654210090637207 1 7 2.345789909362793 7 4 C 7 5.654210090637207 5.654210090637207 7 4 7 Z" stroke="none"/>
            <path d="M 4 2 C 2.897200107574463 2 2 2.897200107574463 2 4 C 2 5.102799892425537 2.897200107574463 6 4 6 C 5.102799892425537 6 6 5.102799892425537 6 4 C 6 2.897200107574463 5.102799892425537 2 4 2 M 4 0 C 6.209139823913574 0 8 1.790860176086426 8 4 C 8 6.209139823913574 6.209139823913574 8 4 8 C 1.790860176086426 8 0 6.209139823913574 0 4 C 0 1.790860176086426 1.790860176086426 0 4 0 Z" stroke="none" class="changeable-fill" fill="#007079"/>
            </g>
        <g transform="translate(600 720)" fill="#eaf4f9">
            <path d="M 4 7 C 2.345789909362793 7 1 5.654210090637207 1 4 C 1 2.345789909362793 2.345789909362793 1 4 1 C 5.654210090637207 1 7 2.345789909362793 7 4 C 7 5.654210090637207 5.654210090637207 7 4 7 Z" stroke="none"/>
            <path d="M 4 2 C 2.897200107574463 2 2 2.897200107574463 2 4 C 2 5.102799892425537 2.897200107574463 6 4 6 C 5.102799892425537 6 6 5.102799892425537 6 4 C 6 2.897200107574463 5.102799892425537 2 4 2 M 4 0 C 6.209139823913574 0 8 1.790860176086426 8 4 C 8 6.209139823913574 6.209139823913574 8 4 8 C 1.790860176086426 8 0 6.209139823913574 0 4 C 0 1.790860176086426 1.790860176086426 0 4 0 Z" stroke="none" class="changeable-fill" fill="#007079"/>
        </g>
    </g>
</svg>