<svg xmlns="http://www.w3.org/2000/svg" width="25.297" height="25.3" viewBox="0 0 25.297 25.3">
<path class="changeable-stroke changeable-fill" d="M29.276,9.273l-10,10a.885.885,0,0,1-1.252-1.252l10-10H21.306a.886.886,0,0,1,0-1.771h8.856a.884.884,0,0,1,.886.886v8.856a.886.886,0,1,1-1.771,0Zm-15.941.519H8.9a2.651,2.651,0,0,0-2.655,2.65V28.4a2.664,2.664,0,0,0,2.66,2.65H24.843a2.657,2.657,0,0,0,2.66-2.661V23.964h0a.886.886,0,1,0-1.771,0V28.39h0a.886.886,0,0,1-.889.89H8.91a.893.893,0,0,1-.889-.879V12.443a.881.881,0,0,1,.883-.879h4.43a.886.886,0,0,0,0-1.771Z" transform="translate(-6 -6)" fill="#007079" stroke="#007079" stroke-width="0.5"/></svg>