<svg xmlns="http://www.w3.org/2000/svg" width="25.379" height="37.56" viewBox="0 0 25.379 37.56"><defs><style>.flag{fill:#243746;}</style></defs><path class="flag" d="M44.379,14.6,20.929,5.075h0l-.011,0c-.008,0-.018,0-.026-.007a.936.936,0,0,0-.176-.047c-.024,0-.049,0-.075-.008S20.583,5,20.555,5s-.039,0-.059.007-.052,0-.078.008a.87.87,0,0,0-.143.033c-.021.007-.042.011-.064.02a1.01,1.01,0,0,0-.187.095l0,0a1.017,1.017,0,0,0-.161.14.424.424,0,0,0-.042.052,1.006,1.006,0,0,0-.085.121c-.011.021-.024.041-.034.064a.9.9,0,0,0-.055.143c-.007.02-.013.039-.018.059a.951.951,0,0,0-.026.217V41.6a.959.959,0,1,0,1.917,0l0-15.937,22.865-9.287a.959.959,0,0,0,0-1.777ZM21.514,23.594V7.384l19.955,8.105Z" transform="translate(-19.599 -5)"/></svg>