<svg xmlns="http://www.w3.org/2000/svg" width="337.843" height="337.843" viewBox="0 0 337.843 337.843"><defs><style>.a{fill:#b0d9ed;}</style></defs><g transform="translate(-2 -2.001)"><path class="a" d="M58.306,339.844H283.537a56.322,56.322,0,0,0,56.306-56.306V58.307A56.322,56.322,0,0,0,283.537,2H58.306A56.322,56.322,0,0,0,2,58.307V283.538a56.322,56.322,0,0,0,56.306,56.306ZM283.537,311.69H58.306a28.155,28.155,0,0,1-28.154-28.154V247.147l70.385-70.385,74.509,74.5a14.038,14.038,0,0,0,19.905,0l46.355-46.341L311.692,275.3v8.234a28.162,28.162,0,0,1-28.154,28.154ZM58.306,30.151H283.537a28.162,28.162,0,0,1,28.154,28.154V235.463l-60.432-60.418a14.038,14.038,0,0,0-19.905,0L185,221.386l-74.509-74.5a14.038,14.038,0,0,0-19.905,0L30.151,207.309v-149A28.155,28.155,0,0,1,58.305,30.151Z"/><path class="a" d="M91.269,116.539A49.27,49.27,0,1,0,42,67.27a49.265,49.265,0,0,0,49.269,49.269Zm0-70.385A21.116,21.116,0,1,1,70.153,67.27,21.118,21.118,0,0,1,91.269,46.154Z" transform="translate(100.769 40.305)"/></g></svg>