<svg xmlns="http://www.w3.org/2000/svg" width="20.289" height="20.763" viewBox="0 0 20.289 20.763"><path d="M23.227,11.668a.646.646,0,0,0-.647-.56H17.642a.647.647,0,1,0,0,1.294h3.321l-5.414,5.047a1.265,1.265,0,0,1-.431.259V2.545A.647.647,0,0,0,14.47,1.9H4.355A.648.648,0,0,0,3.9,3l2.8,2.7L3.9,8.412a.647.647,0,0,0,.453,1.121H13.8v7.937l-.195-.238a2.565,2.565,0,0,0-3.645-.647l-6.751,4.9a.65.65,0,0,0,.755,1.057l6.751-4.9a1.274,1.274,0,0,1,1.811.324,2.566,2.566,0,0,0,3.882.431l5.522-5.133v3.429a.647.647,0,0,0,1.294,0V11.755c0-.022,0-.044,0-.065ZM8.086,6.168a.648.648,0,0,0,0-.928L5.951,3.192H13.8V8.218H5.951Z" transform="translate(-2.939 -1.897)" fill="#007079"/></svg>