<svg xmlns="http://www.w3.org/2000/svg" width="24" height="24" viewBox="0 0 24 24"><g transform="translate(0 0)"><path d="M195.4.1a12,12,0,1,0,12,12A12,12,0,0,0,195.4.1Zm0,22.08A10.08,10.08,0,1,1,205.48,12.1,10.079,10.079,0,0,1,195.4,22.18Z" transform="translate(-183.4 -0.1)" fill="#243746"/><path d="M196.112,11.6a1.145,1.145,0,0,0-1.212,1.212v6.061a1.212,1.212,0,1,0,2.424,0V12.812A1.215,1.215,0,0,0,196.112,11.6Z" transform="translate(-184.112 -1.688)" fill="#243746"/><path d="M196.112,6.6a1.1,1.1,0,0,0-.849.364,1.172,1.172,0,0,0,0,1.7,1.172,1.172,0,0,0,1.7,0,1.172,1.172,0,0,0,0-1.7A1.309,1.309,0,0,0,196.112,6.6Z" transform="translate(-184.112 -0.503)" fill="#243746"/></g></svg>