<svg xmlns="http://www.w3.org/2000/svg" width="22" height="22" viewBox="0 0 22 22"><path d="M194.4.1a11,11,0,1,0,11,11A11,11,0,0,0,194.4.1Zm0,20.24a9.24,9.24,0,1,1,9.24-9.24A9.239,9.239,0,0,1,194.4,20.34Z" transform="translate(-183.4 -0.1)" fill="#243746"/><path d="M195.78,11.6a.831.831,0,0,0-.88.88v4.4a.88.88,0,1,0,1.76,0v-4.4A.882.882,0,0,0,195.78,11.6Z" transform="translate(-184.78 -1.48)" fill="#243746"/><path d="M195.78,6.6a.9.9,0,0,0-.88.88.88.88,0,1,0,1.5-.616A.951.951,0,0,0,195.78,6.6Z" transform="translate(-184.78 -0.88)" fill="#243746"/></svg>