<svg xmlns="http://www.w3.org/2000/svg" width="22.038" height="20.661" viewBox="0 0 22.038 20.661">
  <path id="Path_8794" data-name="Path 8794" d="M26.634,21.4l1.074-.187a2.134,2.134,0,0,0,3.436-1.63,2.144,2.144,0,0,0,2.066-2.066,2.144,2.144,0,0,0,2.066-2.066,2.145,2.145,0,0,0,1.444-3.662l-.143-.143a6.529,6.529,0,0,0-9.558-8.857,6.526,6.526,0,0,0-9.211,9.242,2.135,2.135,0,0,0,1.643,3.42,2.144,2.144,0,0,0,2.066,2.066,2.144,2.144,0,0,0,2.066,2.066c.026.732.411.863,1.249,1.348a2.86,2.86,0,0,0,.12.282A1.235,1.235,0,0,0,26.634,21.4ZM31.506,2.377a5.149,5.149,0,0,1,4.087,8.288L32.427,7.5a5.562,5.562,0,0,0,.59-.5l-.974-.974A3.99,3.99,0,0,1,29.2,7.2H28.111L26.936,8.374a.686.686,0,0,1-.488.2H23.861a.285.285,0,0,1-.2-.487l4.2-4.2a5.123,5.123,0,0,1,3.645-1.51Zm-8.974,0a5.115,5.115,0,0,1,3.506,1.384L22.684,7.115a1.663,1.663,0,0,0,1.176,2.838h2.587a2.054,2.054,0,0,0,1.461-.605l.772-.772H29.2A5.384,5.384,0,0,0,31.179,8.2l4.567,4.567a.772.772,0,0,1-1.092,1.092l-1.638-1.638-.974.974,1.638,1.638a.772.772,0,0,1-1.092,1.092l-1.638-1.638-.974.974L31.614,16.9a.772.772,0,0,1-1.092,1.092l-1.638-1.638-.974.974,1.638,1.638a.772.772,0,0,1-1.092,1.092l-.23-.23a2.143,2.143,0,0,0-1.9-2.98,2.144,2.144,0,0,0-2.066-2.066,2.144,2.144,0,0,0-2.066-2.066,2.148,2.148,0,0,0-2.142-2.074,2.125,2.125,0,0,0-1.266.421,5.149,5.149,0,0,1,3.749-8.685ZM18.755,13.313a.769.769,0,0,1,.226-.546l.522-.522a.772.772,0,0,1,1.092,1.092l-.522.522a.772.772,0,0,1-1.318-.546Zm2.066,2.066a.769.769,0,0,1,.226-.546l.522-.522A.772.772,0,0,1,22.661,15.4l-.522.522a.772.772,0,0,1-1.318-.546Zm2.066,2.066a.769.769,0,0,1,.226-.546l.522-.522a.772.772,0,0,1,1.092,1.092l-.522.522a.772.772,0,0,1-1.318-.546Zm2.838,2.838a.772.772,0,0,1-.546-1.318l.522-.522a.772.772,0,0,1,1.092,1.092l-.522.522A.769.769,0,0,1,25.725,20.283Z" transform="translate(-16 -1)" fill="#007079"/>
</svg>
