<svg xmlns="http://www.w3.org/2000/svg" width="21.483" height="22.916" viewBox="0 0 21.483 22.916">
  <path id="Path_375" data-name="Path 375" d="M301.186,6172.046v-1.433a2.864,2.864,0,1,0,0-5.729h-.263a4.287,4.287,0,0,0-.852-1.433h1.115a4.3,4.3,0,0,1,0,8.595Zm-1.2-8.7a4.243,4.243,0,0,0-.911-.709c.086-.212.166-.428.237-.646a4.041,4.041,0,0,0,3.311-4.265c0-2.373-1.6-4.3-3.58-4.3a3.013,3.013,0,0,0-1.109.231,8.342,8.342,0,0,0-1.015-1.107,4.467,4.467,0,0,1,2.124-.556c2.768,0,5.012,2.564,5.012,5.728A5.579,5.579,0,0,1,299.981,6163.344Zm-3.158.35a4.285,4.285,0,0,1,2.93,4.055v2.864a4.3,4.3,0,0,1-4.3,4.3H288.3a4.3,4.3,0,0,1-4.3-4.3v-2.864a4.285,4.285,0,0,1,2.931-4.055,7.571,7.571,0,0,1-1.5-4.539c0-3.956,2.886-7.16,6.445-7.16s6.445,3.2,6.445,7.16A7.571,7.571,0,0,1,296.823,6163.694Zm-11.392,4.055v2.864a2.865,2.865,0,0,0,2.864,2.865h7.161a2.865,2.865,0,0,0,2.864-2.865v-2.864a2.856,2.856,0,0,0-2.639-2.842,5.845,5.845,0,0,1-7.614,0A2.856,2.856,0,0,0,285.431,6167.749Zm6.445-14.322c-2.768,0-5.013,2.565-5.013,5.729s2.244,5.729,5.013,5.729,5.013-2.565,5.013-5.729S294.645,6153.427,291.876,6153.427Z" transform="translate(-283.999 -6151.995)" fill="#007079" fill-rule="evenodd"/>
</svg>
