<svg xmlns="http://www.w3.org/2000/svg" width="21" height="19.469" viewBox="0 0 21 19.469">
  <defs>
    <style>
      .sdg-level-a{fill:#007079;}
    </style>
  </defs>
  <g transform="translate(-288.5 -947.5)">
    <path class="sdg-level-a" d="M12,1.5a.5.5,0,0,1,.21.046l10,4.617a.5.5,0,0,1,0,.908l-10,4.617a.5.5,0,0,1-.419,0l-10-4.617a.5.5,0,0,1,0-.908l10-4.617A.5.5,0,0,1,12,1.5Zm8.807,5.117L12,2.551,3.193,6.617,12,10.683Z" transform="translate(287 946)"/>
    <path class="sdg-level-a" d="M12,22.117a.5.5,0,0,1-.21-.046l-10-4.617a.5.5,0,1,1,.419-.908L12,21.066l9.79-4.52a.5.5,0,1,1,.419.908l-10,4.617A.5.5,0,0,1,12,22.117Z" transform="translate(287 944.852)"/>
    <path class="sdg-level-a" d="M12,17.117a.5.5,0,0,1-.21-.046l-10-4.617a.5.5,0,1,1,.419-.908L12,16.066l9.79-4.52a.5.5,0,1,1,.419.908l-10,4.617A.5.5,0,0,1,12,17.117Z" transform="translate(287 945.234)"/>
  </g>
</svg>
