<svg xmlns="http://www.w3.org/2000/svg" width="26.789" height="19.304" viewBox="0 0 26.789 19.304">
  <g id="crm" transform="translate(-9 -33.963)">
    <g id="Group_12019" data-name="Group 12019" transform="translate(9 33.963)">
      <path id="Path_8787" data-name="Path 8787" d="M32.3,45.136a4.014,4.014,0,0,0,1.542-3.17,3.966,3.966,0,0,0-3.247-3.929v-.725a3.29,3.29,0,0,0-3.247-3.324H19.7c-.965-.012,5.876-.049-2.259,0a3.29,3.29,0,0,0-3.247,3.324v.725a3.966,3.966,0,0,0-3.247,3.929,4.014,4.014,0,0,0,1.542,3.17A6,6,0,0,0,9,50.608v2.659H20.689V50.608a6,6,0,0,0-3.49-5.472,4.014,4.014,0,0,0,1.542-3.17,3.966,3.966,0,0,0-3.247-3.929v-.725a1.974,1.974,0,0,1,1.948-1.994H19.5c1.461.024-3.325.026,7.847,0A1.974,1.974,0,0,1,29.3,37.312v.725a3.965,3.965,0,0,0-3.247,3.929,4.014,4.014,0,0,0,1.542,3.17,6,6,0,0,0-3.49,5.472v2.659H35.789V50.608A6,6,0,0,0,32.3,45.136ZM19.39,50.608v1.33h-1.3V49.278h-1.3v2.659H12.9V49.278H11.6v2.659H10.3v-1.33a4.547,4.547,0,1,1,9.091,0Zm-1.948-8.643a2.6,2.6,0,1,1-2.6-2.659A2.632,2.632,0,0,1,17.442,41.965Zm9.906,0a2.6,2.6,0,1,1,2.6,2.659A2.632,2.632,0,0,1,27.347,41.965Zm7.143,9.972h-1.3V49.278h-1.3v2.659H28V49.278H26.7v2.659H25.4v-1.33a4.547,4.547,0,1,1,9.091,0Z" transform="translate(-9 -33.963)" fill="#006e77"/>
      <path id="Path_8788" data-name="Path 8788" d="M38,38h1.347v1.347H38Z" transform="translate(-22.983 -35.28)" fill="#006e77"/>
      <path id="Path_8789" data-name="Path 8789" d="M42,38h1.347v1.347H42Z" transform="translate(-24.391 -35.28)" fill="#006e77"/>
      <path id="Path_8790" data-name="Path 8790" d="M46,38h1.347v1.347H46Z" transform="translate(-25.798 -35.28)" fill="#006e77"/>
      <path id="Path_8800" data-name="Path 8800" d="M38,38h1.347v1.347H38Z" transform="translate(-29.972 -35.28)" fill="#006e77"/>
      <path id="Path_8801" data-name="Path 8801" d="M42,38h1.347v1.347H42Z" transform="translate(-31.38 -35.28)" fill="#006e77"/>
    </g>
  </g>
</svg>
