<svg xmlns="http://www.w3.org/2000/svg" width="19.735" height="22.554" viewBox="0 0 19.735 22.554">
  <g id="access-denied" transform="translate(-35 -56)">
    <g id="Group_10184" data-name="Group 10184" transform="translate(35 56)">
      <g id="Group_10183" data-name="Group 10183" transform="translate(0 0)">
        <path id="Path_548" data-name="Path 548" d="M146,157.846A4.846,4.846,0,1,0,150.846,153,4.851,4.851,0,0,0,146,157.846Zm7.929,0a3.083,3.083,0,0,1-4.55,2.712l4.178-4.178A3.065,3.065,0,0,1,153.929,157.846Zm-5.8,1.466a3.083,3.083,0,0,1,4.178-4.178Z" transform="translate(-140.978 -146.26)" fill="#007079"/>
        <path id="Path_549" data-name="Path 549" d="M51.208,4.039,42.178.075a.881.881,0,0,0-.711,0L32.524,4.041A.881.881,0,0,0,32,4.846v6.96a11.347,11.347,0,0,0,2.852,7.377,10.3,10.3,0,0,0,3.124,2.435,8.641,8.641,0,0,0,3.892.937A8.931,8.931,0,0,0,47.144,20.8a.881.881,0,1,0-1.037-1.425,7.181,7.181,0,0,1-4.239,1.417c-4.242,0-8.105-4.283-8.105-8.986V5.419l8.063-3.575,8.148,3.577v6.385a9.328,9.328,0,0,1-1.348,4.748.881.881,0,1,0,1.515.9,11.089,11.089,0,0,0,1.6-5.648V4.846A.881.881,0,0,0,51.208,4.039Z" transform="translate(-32 0)" fill="#007079"/>
      </g>
    </g>
  </g>
</svg>
