<svg xmlns="http://www.w3.org/2000/svg" width="22" height="22" viewBox="0 0 22 22">
  <g id="Group_12018" data-name="Group 12018" transform="translate(5361 -4752)">
    <g id="help_1_" data-name="help (1)" transform="translate(-5361 4752)">
      <path id="Path_8797" data-name="Path 8797" d="M22,14.889a7.128,7.128,0,0,0-5.208-6.853A8.4,8.4,0,1,0,1.165,12.67L.031,16.77l4.1-1.134a8.369,8.369,0,0,0,3.905,1.156,7.114,7.114,0,0,0,10.471,4.219l3.462.958-.958-3.462A7.086,7.086,0,0,0,22,14.889ZM4.334,14.242l-2.454.679.679-2.454L2.4,12.225A7.109,7.109,0,1,1,4.576,14.4ZM20.12,20.12l-1.821-.5-.243.158a5.824,5.824,0,0,1-8.687-3.03,8.416,8.416,0,0,0,7.376-7.376,5.825,5.825,0,0,1,3.03,8.687l-.158.243Zm0,0" fill="#007079"/>
      <path id="Path_8798" data-name="Path 8798" d="M180.5,271h1.289v1.289H180.5Zm0,0" transform="translate(-172.744 -259.355)" fill="#007079"/>
      <path id="Path_8799" data-name="Path 8799" d="M139.367,92.578a1.276,1.276,0,0,1-.42.952l-1.514,1.386v1.573h1.289V95.483l1.1-1a2.578,2.578,0,1,0-4.318-1.9h1.289a1.289,1.289,0,0,1,2.578,0Zm0,0" transform="translate(-129.678 -86.133)" fill="#007079"/>
    </g>
  </g>
</svg>
