<svg xmlns="http://www.w3.org/2000/svg" width="24.031" height="24.157" viewBox="0 0 24.031 24.157">
  <g id="np_warning_1375601_000000" transform="translate(-1.26 -0.999)">
    <path id="Path_632" data-name="Path 632" d="M4.294,17.357H5.828v3.483a.616.616,0,0,0,1.053.436l3.93-3.919h.74V19a2.676,2.676,0,0,0,2.672,2.68H17.3l3.309,3.3a.616.616,0,0,0,1.048-.436V21.677h.959A2.675,2.675,0,0,0,25.291,19V11.2a2.674,2.674,0,0,0-2.669-2.672H20.05V4.034A3.04,3.04,0,0,0,17.016,1H4.294A3.039,3.039,0,0,0,1.26,4.034V14.312a3.04,3.04,0,0,0,3.034,3.045Zm18.327-7.6a1.44,1.44,0,0,1,1.44,1.44V19a1.44,1.44,0,0,1-1.44,1.44H21.046a.617.617,0,0,0-.616.616v2l-2.438-2.426a.613.613,0,0,0-.436-.18H14.222A1.44,1.44,0,0,1,12.782,19V17.358h4.233a3.041,3.041,0,0,0,3.034-3.045V9.759ZM2.493,4.034a1.8,1.8,0,0,1,1.8-1.8H17.016a1.8,1.8,0,0,1,1.8,1.8V14.312a1.8,1.8,0,0,1-1.8,1.8H10.55a.616.616,0,0,0-.436.18L7.061,19.354V16.741a.615.615,0,0,0-.616-.616H4.295a1.805,1.805,0,0,1-1.8-1.812Z" transform="translate(0 0)" fill="#007079"/>
    <path id="Path_633" data-name="Path 633" d="M16.848,22.867h8.668a1.617,1.617,0,0,0,1.4-2.426l-4.334-7.507a1.618,1.618,0,0,0-2.8,0l-4.332,7.507a1.617,1.617,0,0,0,1.4,2.426Zm-.333-1.809,4.33-7.507a.384.384,0,0,1,.668,0l4.336,7.507a.385.385,0,0,1-.333.577H16.847a.385.385,0,0,1-.332-.577Z" transform="translate(-10.527 -8.383)" fill="#007079"/>
    <path id="Path_634" data-name="Path 634" d="M37.487,29.243a.616.616,0,0,0,.616-.616V26.445a.616.616,0,1,0-1.233,0v2.182a.615.615,0,0,0,.616.616Z" transform="translate(-26.832 -18.708)" fill="#007079"/>
    <path id="Path_635" data-name="Path 635" d="M37.487,43.986a.616.616,0,0,0,.616-.616v-.035a.616.616,0,1,0-1.233,0v.035a.615.615,0,0,0,.616.616Z" transform="translate(-26.832 -31.434)" fill="#007079"/>
  </g>
</svg>
