<svg xmlns="http://www.w3.org/2000/svg" width="23" height="21.137" viewBox="0 0 23 21.137">
  <g id="exchange" transform="translate(0 -20.733)">
    <g id="Group_12021" data-name="Group 12021" transform="translate(0 20.733)">
      <g id="Group_12020" data-name="Group 12020">
        <path id="Path_8802" data-name="Path 8802" d="M21.562,247.4c0,2.012-1.207,2.156-1.437,2.156H2.451l3.8-3.8L5.24,244.733.209,249.764a.719.719,0,0,0,0,1.013l5.031,5.031L6.253,254.8l-3.8-3.8H20.125c.992,0,2.875-.719,2.875-3.594v-2.156H21.562Z" transform="translate(0 -234.671)" fill="#007079"/>
        <path id="Path_8803" data-name="Path 8803" d="M1.45,29.149c0-2.012,1.207-2.156,1.437-2.156H20.561l-3.8,3.8,1.013,1.013L22.8,26.777a.719.719,0,0,0,0-1.013l-5.031-5.031-1.021,1.021,3.809,3.8H2.888c-.992,0-2.875.719-2.875,3.594v2.156H1.45Z" transform="translate(-0.012 -20.733)" fill="#007079"/>
      </g>
    </g>
  </g>
</svg>
