<svg xmlns="http://www.w3.org/2000/svg" width="20.549" height="20.549" viewBox="0 0 20.549 20.549"><path d="M23.811,14.017a8.137,8.137,0,0,1,4.6,7.327c0,.157-.005.311-.014.465a3.725,3.725,0,0,1,1.049.308c.021-.255.035-.513.035-.774a9.2,9.2,0,0,0-5.462-8.409h0a3.712,3.712,0,0,1-.2,1.082Zm1.211,13.929a8.127,8.127,0,0,1-9.5,0,3.724,3.724,0,0,1-.825.721,9.2,9.2,0,0,0,11.145,0,3.723,3.723,0,0,1-.825-.721ZM12.154,21.809c-.009-.155-.013-.31-.014-.465a8.134,8.134,0,0,1,4.6-7.326h0a3.712,3.712,0,0,1-.2-1.082,9.2,9.2,0,0,0-5.462,8.409c0,.261.013.518.035.774h0a3.725,3.725,0,0,1,1.049-.308ZM10,25.518a2.675,2.675,0,1,0,.784-1.892A2.675,2.675,0,0,0,10,25.518Zm1.071,0a1.605,1.605,0,1,0,1.605-1.605,1.606,1.606,0,0,0-1.605,1.605ZM17.6,12.675A2.676,2.676,0,1,0,20.274,10,2.676,2.676,0,0,0,17.6,12.675Zm1.071,0a1.605,1.605,0,1,0,1.605-1.605A1.606,1.606,0,0,0,18.669,12.675ZM25.2,25.518h0a2.675,2.675,0,1,0,.784-1.892,2.675,2.675,0,0,0-.784,1.892Zm1.071,0a1.605,1.605,0,1,0,1.605-1.605A1.606,1.606,0,0,0,26.267,25.518Z" transform="translate(-10 -9.999)" fill="#007079"/></svg>