<svg xmlns="http://www.w3.org/2000/svg" width="16.932" height="16.936" viewBox="0 0 16.932 16.936"><path d="M30.043,13.742c0,.009-.007.018-.009.027-.07.211-.154.417-.232.628l-.485,1.319-.673,1.833q-.4,1.084-.8,2.17c-.285.776-.57,1.55-.854,2.326s-.565,1.536-.846,2.3q-.388,1.053-.774,2.1c-.214.576-.424,1.156-.637,1.732-.144.388-.285.776-.429,1.165-.051.142-.106.285-.157.429a.456.456,0,0,1-.372.321.445.445,0,0,1-.446-.214c-.135-.278-.269-.556-.407-.836q-.888-1.837-1.779-3.672-.433-.9-.866-1.788l.334-.337c.112-.114.226-.226.339-.341q.3-.3.6-.6l2.416-2.423c.187-.187.372-.372.558-.561a.449.449,0,1,0-.635-.635l-1.527,1.533q-1.026,1.03-2.051,2.057l-.334.337-.029.029c-.1.1-.2.2-.305.305-.1-.049-.2-.1-.3-.145q-1.837-.888-3.672-1.779l-2.245-1.088-.054-.027a.448.448,0,0,1-.2-.586.532.532,0,0,1,.26-.235l.027-.011c.009,0,.018-.007.027-.009.209-.079.417-.153.628-.232l1.319-.485,1.833-.673,2.17-.8,2.326-.854q1.151-.424,2.3-.846l2.1-.774c.576-.214,1.156-.424,1.732-.637l1.165-.429c.144-.051.285-.106.429-.157a.451.451,0,0,1,.548.552Z" transform="translate(-13.133 -13.169)" fill="#007079"/></svg>