<svg xmlns="http://www.w3.org/2000/svg" width="13.014" height="16" viewBox="0 0 13.014 16"><defs><style>.pdf_a{fill:#ff2116;}.pdf_b{fill:#f5f5f5;}.pdf_c{fill:#2c2c2c;}</style></defs><g transform="translate(36.076 -93.732)"><g transform="translate(-36.076 93.732)"><g transform="translate(0)"><path class="pdf_a" d="M-51.9,183.976a1.655,1.655,0,0,0-1.652,1.653v12.694a1.655,1.655,0,0,0,1.652,1.653h9.707a1.655,1.655,0,0,0,1.652-1.653V187.885a1.368,1.368,0,0,0-.107-.6,1.671,1.671,0,0,0-.327-.473l0,0-2.408-2.362,0,0a1.905,1.905,0,0,0-.51-.327,1.865,1.865,0,0,0-.729-.138H-51.9Z" transform="translate(53.548 -183.976)"/><path class="pdf_b" d="M-49.3,187.118h7.284a1.551,1.551,0,0,1,.5.094,1.381,1.381,0,0,1,.351.222h0l2.4,2.357a1.326,1.326,0,0,1,.215.31,1.177,1.177,0,0,1,.06.359s0,.008,0,.012v10.45a1.1,1.1,0,0,1-1.11,1.11H-49.3a1.1,1.1,0,0,1-1.109-1.11V188.228a1.1,1.1,0,0,1,1.109-1.11Z" transform="translate(50.949 -186.575)"/><path class="pdf_a" d="M-35.394,208.259c-.374-.374.031-.887,1.128-1.432l.69-.343.269-.588c.148-.324.369-.852.49-1.173l.222-.585-.153-.433a3.093,3.093,0,0,1-.136-1.62c.161-.39.69-.35.9.068a2.639,2.639,0,0,1-.047,1.662l-.159.611.14.237a8.244,8.244,0,0,0,.5.689l.372.462.462-.06c1.469-.192,1.973.134,1.973.6,0,.59-1.154.638-2.123-.042a2.942,2.942,0,0,1-.368-.305s-.607.124-.906.2-.462.135-.914.288c0,0-.159.23-.262.4a4.282,4.282,0,0,1-1.154,1.327A.786.786,0,0,1-35.394,208.259Zm.586-.209a4.421,4.421,0,0,0,.929-1.1l.119-.189-.542.273c-.838.421-1.221.818-1.022,1.058.112.135.246.124.516-.043Zm5.442-1.527a.315.315,0,0,0-.057-.551,1.525,1.525,0,0,0-.8-.1c-.288.02-.752.078-.831.1,0,0,.255.176.368.241a4.889,4.889,0,0,0,.784.328c.264.081.416.072.532-.01Zm-2.188-.909a5.368,5.368,0,0,1-.47-.606,3.378,3.378,0,0,1-.263-.392s-.128.412-.233.66l-.328.811-.1.184s.505-.166.763-.233c.272-.071.825-.18.825-.18Zm-.705-2.828a1.188,1.188,0,0,0-.04-.666c-.237-.259-.523-.043-.475.573a4.2,4.2,0,0,0,.137.78l.125.4.088-.3A7.849,7.849,0,0,0-32.26,202.785Z" transform="translate(38.643 -198.732)"/><g transform="translate(3.884 11.257)"><path class="pdf_c" d="M-31.067,249.125h.607a1.649,1.649,0,0,1,.472.056.554.554,0,0,1,.305.242.8.8,0,0,1,.124.45.819.819,0,0,1-.1.416.59.59,0,0,1-.271.251,1.32,1.32,0,0,1-.52.077h-.21v.956h-.406Zm.406.314v.854h.2a.529.529,0,0,0,.371-.1.438.438,0,0,0,.1-.327.49.49,0,0,0-.068-.273.28.28,0,0,0-.151-.129.943.943,0,0,0-.257-.025Z" transform="translate(31.067 -249.125)"/><path class="pdf_c" d="M-20.547,249.125H-20a1.245,1.245,0,0,1,.639.142.881.881,0,0,1,.362.422,1.518,1.518,0,0,1,.124.621,1.733,1.733,0,0,1-.111.641,1.019,1.019,0,0,1-.337.452,1.049,1.049,0,0,1-.646.172h-.581Zm.406.325v1.8h.169a.568.568,0,0,0,.513-.244,1.188,1.188,0,0,0,.16-.655q0-.9-.673-.9Z" transform="translate(22.364 -249.125)"/><path class="pdf_c" d="M-8.593,249.125h1.36v.325h-.955v.732h.764v.325h-.764v1.068h-.406Z" transform="translate(12.476 -249.125)"/></g></g></g></g></svg>
