<svg xmlns="http://www.w3.org/2000/svg" width="24.799" height="25" viewBox="0 0 24.799 25">
    <path d="M303.6,24.1V21.5a6.059,6.059,0,0,0-2-4.4,7.028,7.028,0,0,0-4.7-1.8H285.5a7.028,7.028,0,0,0-4.7,1.8,5.891,5.891,0,0,0-2,4.4v2.6a1,1,0,0,0,2,0V21.5a4.107,4.107,0,0,1,1.3-2.9,4.7,4.7,0,0,1,3.4-1.2h11.4a5.607,5.607,0,0,1,3.4,1.2,4.107,4.107,0,0,1,1.3,2.9v2.6a.945.945,0,0,0,1,1,1.075,1.075,0,0,0,1-1Z" transform="translate(-278.8 -0.1)" class="changeable-fill" fill="#007079"/>
    <path d="M291.2,12.5a6.167,6.167,0,0,0,6.2-6.2,6.2,6.2,0,0,0-12.4,0A6.1,6.1,0,0,0,291.2,12.5Zm-3.1-9.3a4.07,4.07,0,0,1,3-1.2,4.505,4.505,0,0,1,3,1.2,4.07,4.07,0,0,1,1.2,3,4.505,4.505,0,0,1-1.2,3,4.07,4.07,0,0,1-3,1.2,4.505,4.505,0,0,1-3-1.2,4.07,4.07,0,0,1-1.2-3A4.713,4.713,0,0,1,288.1,3.2Z" transform="translate(-278.8 -0.1)" class="changeable-fill" fill="#007079"/>
</svg>