<svg xmlns="http://www.w3.org/2000/svg" width="20" height="20" viewBox="0 0 20 20">
    <g transform="translate(-440 -2579)">
        <g class="changeable-fill changeable-stroke" transform="translate(440 2579)" fill="#007079" stroke="#007079" stroke-width="1.5">
            <circle cx="10" cy="10" r="10" stroke="none"/>
            <circle cx="10" cy="10" r="9.25" fill="none"/>
        </g>
        <path d="M4.98,3.837,7.43,1.388a.789.789,0,0,0,0-1.143.789.789,0,0,0-1.143,0L3.837,2.694,1.388.245a.789.789,0,0,0-1.143,0,.789.789,0,0,0,0,1.143L2.694,3.837.245,6.287a.789.789,0,0,0,0,1.143.789.789,0,0,0,1.143,0L3.837,4.98,6.287,7.43A.808.808,0,1,0,7.43,6.287Z" transform="translate(450.102 2583.422) rotate(45)" fill="#fff"/>
    </g>
</svg>