<svg xmlns="http://www.w3.org/2000/svg" width="16" height="15.632" viewBox="0 0 16 15.632"><defs><style>.pptx_a{fill:#d24625;}.pptx_b{fill:#fff;}</style></defs><g transform="translate(0)"><path class="pptx_a" d="M8.419,0H9.449V1.636c1.943.011,3.888-.02,5.829.009a.63.63,0,0,1,.7.7c.031,3.4-.007,6.792.018,10.19a2.136,2.136,0,0,1-.174,1.1,1.637,1.637,0,0,1-.922.182c-1.818-.009-3.635-.005-5.455-.005v1.818H8.319c-2.77-.505-5.546-.967-8.318-1.454Q0,7.817,0,1.458C2.805.973,5.61.478,8.419,0Z" transform="translate(0)"/><path class="pptx_b" d="M64.971,15h6V26.088h-6V24.634h4.362v-.727H64.971V23h4.362v-.727h-4.36c0-.356,0-.713,0-1.069a2.552,2.552,0,0,0,2.183-.215A2.486,2.486,0,0,0,68.272,19c-.8-.006-1.6,0-2.392,0,0-.791.009-1.581-.016-2.37-.3.058-.6.12-.893.184V15Z" transform="translate(-55.522 -12.819)"/><path class="pptx_a" d="M73.729,23.587a2.558,2.558,0,0,1,2.392,2.381c-.8.009-1.6.006-2.394.006C73.728,25.178,73.726,24.381,73.729,23.587Z" transform="translate(-63.006 -20.157)"/><path class="pptx_b" d="M19.966,32.518c.987.047,2.183-.391,3,.349a2.226,2.226,0,0,1-.585,3.268,2.684,2.684,0,0,1-1.334.167q0,1.066,0,2.132-.541-.047-1.082-.091C19.948,36.4,19.944,34.459,19.966,32.518Z" transform="translate(-17.049 -27.716)"/><path class="pptx_a" d="M27.46,39.694c.358-.016.8-.082,1.043.254a1.319,1.319,0,0,1,.024,1.192c-.207.374-.676.338-1.038.382C27.451,40.913,27.455,40.3,27.46,39.694Z" transform="translate(-23.464 -33.908)"/></g></svg>
