<svg xmlns="http://www.w3.org/2000/svg" width="24.166" height="24.166" viewBox="0 0 24.166 24.166"><defs><style>.a{fill:#fff;}</style></defs><path class="a" d="M20.626,6.089h-.661V3.54A3.544,3.544,0,0,0,16.425,0H7.741A3.544,3.544,0,0,0,4.2,3.54V6.089H3.54A3.544,3.544,0,0,0,0,9.629v5.664a3.544,3.544,0,0,0,3.54,3.54H4.2v3.21a2.126,2.126,0,0,0,2.124,2.124H17.841a2.126,2.126,0,0,0,2.124-2.124v-3.21h.661a3.544,3.544,0,0,0,3.54-3.54V9.629A3.544,3.544,0,0,0,20.626,6.089ZM5.617,3.54A2.126,2.126,0,0,1,7.741,1.416h8.685A2.126,2.126,0,0,1,18.549,3.54V6.089H5.617Zm12.933,18.5a.709.709,0,0,1-.708.708H6.325a.709.709,0,0,1-.708-.708V15.057H18.549Zm4.2-6.749a2.126,2.126,0,0,1-2.124,2.124h-.661v-2.36h.425a.708.708,0,0,0,0-1.416H3.776a.708.708,0,0,0,0,1.416H4.2v2.36H3.54a2.126,2.126,0,0,1-2.124-2.124V9.629A2.126,2.126,0,0,1,3.54,7.5H20.626A2.126,2.126,0,0,1,22.75,9.629Z"/><path class="a" d="M205.484,353h-3.776a.708.708,0,1,0,0,1.416h3.776a.708.708,0,0,0,0-1.416Z" transform="translate(-191.513 -336.339)"/><path class="a" d="M205.484,417h-3.776a.708.708,0,1,0,0,1.416h3.776a.708.708,0,0,0,0-1.416Z" transform="translate(-191.513 -397.318)"/><path class="a" d="M67.974,193H65.708a.708.708,0,1,0,0,1.416h2.266a.708.708,0,0,0,0-1.416Z" transform="translate(-61.932 -183.891)"/></svg>