<svg xmlns="http://www.w3.org/2000/svg" width="38.376" height="38.935" viewBox="0 0 29.376 29.935">
  <path class="changeable-fill" d="M30.542,9.854A14.492,14.492,0,0,0,20.157,5.469,14.831,14.831,0,0,0,5.469,20.437a15.048,15.048,0,0,0,4.3,10.582,14.489,14.489,0,0,0,20.769,0,15.163,15.163,0,0,0,0-21.164Zm-10.387.223a5.176,5.176,0,1,1-5.074,5.17A5.181,5.181,0,0,1,20.154,10.077ZM28.6,29.036a11.907,11.907,0,0,1-3.543,2.495,11.776,11.776,0,0,1-9.792,0,11.991,11.991,0,0,1-3.543-2.495c-.513-.523,1.647-6.07,4.352-6.07h8.175c2.706,0,4.864,5.544,4.351,6.07Z" transform="translate(-5.469 -5.469)" fill="#007079"/>
</svg>