<svg xmlns="http://www.w3.org/2000/svg" width="15.617" height="19.751" viewBox="0 0 15.617 19.751"><path d="M16.459,7A.5.5,0,0,0,16,7.459V26.292a.477.477,0,0,0,.459.459h14.7a.477.477,0,0,0,.459-.459v-14.7a.469.469,0,0,0-.136-.33L27.347,7.129A.464.464,0,0,0,27.024,7Zm.459.919h9.646v3.675a.477.477,0,0,0,.459.459H30.7v13.78H16.919Zm10.565.646,2.569,2.569H27.483Zm-8.727,6.244a.459.459,0,0,0,0,.919H28.861a.459.459,0,0,0,0-.919Zm0,3.675a.459.459,0,0,0,0,.919H28.861a.459.459,0,0,0,0-.919Zm0,3.675a.459.459,0,0,0,0,.919H28.861a.459.459,0,0,0,0-.919Z" transform="translate(-16 -7)" fill="#007079"/></svg>