<svg xmlns="http://www.w3.org/2000/svg" width="25" height="25" viewBox="0 0 25 25"><path d="M84.9,8.8l11.454,5.7a1.377,1.377,0,0,0,.9,0L108.7,8.8a1.149,1.149,0,0,0,.6-.9.961.961,0,0,0-.6-.9L97.248,1.3a1.377,1.377,0,0,0-.9,0L84.9,7a1.149,1.149,0,0,0-.6.9A1.456,1.456,0,0,0,84.9,8.8ZM96.75,3.3l9.163,4.6L96.75,12.5,87.587,7.9Z" transform="translate(-84.3 -1.225)" fill="#007079"/><path d="M107.706,18.5,96.75,24,85.794,18.5a.961.961,0,0,0-.9,1.7h0L96.352,26a1.377,1.377,0,0,0,.9,0L108.7,20.3a.884.884,0,0,0,.4-1.3A.97.97,0,0,0,107.706,18.5Z" transform="translate(-84.3 -1.075)" fill="#007079"/><path d="M107.706,12.7,96.75,18.2,85.794,12.7a1.047,1.047,0,0,0-1.295.4,1.056,1.056,0,0,0,.4,1.3h0l11.454,5.7a1.377,1.377,0,0,0,.9,0L108.7,14.4a.884.884,0,0,0,.4-1.3A1.229,1.229,0,0,0,107.706,12.7Z" transform="translate(-84.3 -1.126)" fill="#007079"/></svg>