<svg xmlns="http://www.w3.org/2000/svg" width="35" height="35" viewBox="0 0 35 35"><g transform="translate(-8.643 -8.65)"><g transform="translate(8.643 8.65)" fill="#fff" stroke="#007079" stroke-width="1"><circle cx="17.5" cy="17.5" r="17.5" stroke="none"/><circle cx="17.5" cy="17.5" r="17" fill="none"/></g><path d="M22.3,65.1h-4.51a1.126,1.126,0,0,1-1.127-1.127V59.46a1.127,1.127,0,1,1,2.254,0v3.382H22.3a1.127,1.127,0,1,1,0,2.254Z" transform="translate(-0.019 -30.404)" fill="#007079"/><path d="M55.276,24.709a1.127,1.127,0,0,1-.8-1.928l5.636-5.636A1.127,1.127,0,0,1,61.7,18.734L56.065,24.37a1.127,1.127,0,0,1-.789.338Z" transform="translate(-27.354 -0.163)" fill="#007079"/><path d="M63.969,23.432A1.128,1.128,0,0,1,62.842,22.3V18.922H59.46a1.127,1.127,0,1,1,0-2.254h4.51A1.126,1.126,0,0,1,65.1,17.795V22.3a1.128,1.128,0,0,1-1.127,1.128Z" transform="translate(-30.41 -0.013)" fill="#007079"/><path d="M17.776,62.209a1.127,1.127,0,0,1-.8-1.928l5.636-5.636A1.127,1.127,0,0,1,24.2,56.234L18.565,61.87a1.127,1.127,0,0,1-.789.338Z" transform="translate(0 -27.517)" fill="#007079"/><path d="M17.795,23.432A1.127,1.127,0,0,1,16.668,22.3v-4.51a1.126,1.126,0,0,1,1.127-1.127H22.3a1.127,1.127,0,1,1,0,2.254H18.922V22.3a1.128,1.128,0,0,1-1.128,1.128Z" transform="translate(-0.019 -0.013)" fill="#007079"/><path d="M61.082,62.239a1.126,1.126,0,0,1-.8-.327l-5.636-5.636a1.127,1.127,0,0,1,1.589-1.589l5.636,5.636a1.127,1.127,0,0,1-.788,1.916Z" transform="translate(-27.523 -27.547)" fill="#007079"/><path d="M63.969,65.1H59.46a1.127,1.127,0,1,1,0-2.254h3.382V59.46a1.127,1.127,0,1,1,2.254,0v4.51A1.126,1.126,0,0,1,63.969,65.1Z" transform="translate(-30.41 -30.404)" fill="#007079"/><path d="M23.419,24.546a1.126,1.126,0,0,1-.8-.327l-5.636-5.636a1.132,1.132,0,1,1,1.6-1.6l5.636,5.636a1.127,1.127,0,0,1-.8,1.928Z" transform="translate(-0.006)" fill="#007079"/></g></svg>