<svg xmlns="http://www.w3.org/2000/svg" width="18.398" height="20.356" viewBox="0 0 18.398 20.356"><defs><style>.c{fill:#fff;stroke:#fff;stroke-width:0.5px;}</style></defs><path class="c" d="M35.9,18.136a.559.559,0,0,0-.559-.559H31.144v-1.4A1.678,1.678,0,0,0,29.466,14.5H24.432a1.678,1.678,0,0,0-1.678,1.678v1.4H18.559a.559.559,0,1,0,0,1.119h.861L20.659,32.32h0A2.237,2.237,0,0,0,22.9,34.356h8.11a2.238,2.238,0,0,0,2.237-2.036l1.233-13.625h.861a.559.559,0,0,0,.559-.559ZM23.873,16.178a.559.559,0,0,1,.559-.559h5.034a.559.559,0,0,1,.559.559v1.4H23.873Zm8.25,16.041A1.12,1.12,0,0,1,31,33.237h-8.11a1.12,1.12,0,0,1-1.119-1.018l-1.23-13.524H33.353Z" transform="translate(-17.75 -14.25)"/></svg>