<svg xmlns="http://www.w3.org/2000/svg" width="14.343" height="15.857" viewBox="0 0 14.343 15.857"><defs><style>.a{fill:#007079;stroke:#007079;stroke-width:0.5px;}</style></defs><path class="a" d="M31.843,17.312a.433.433,0,0,0-.433-.433H28.166V15.8a1.3,1.3,0,0,0-1.3-1.3H22.975a1.3,1.3,0,0,0-1.3,1.3v1.082H18.433a.433.433,0,1,0,0,.865H19.1l.958,10.538h0a1.73,1.73,0,0,0,1.73,1.575h6.273a1.731,1.731,0,0,0,1.73-1.575l.954-10.538h.666a.433.433,0,0,0,.433-.433Zm-9.3-1.514a.432.432,0,0,1,.433-.433h3.893a.433.433,0,0,1,.433.433v1.082H22.542ZM28.923,28.2a.866.866,0,0,1-.865.787H21.785a.866.866,0,0,1-.865-.787l-.951-10.46h9.906Z" transform="translate(-17.75 -14.25)"/></svg>