<svg xmlns="http://www.w3.org/2000/svg" width="18.398" height="20.356" viewBox="0 0 18.398 20.356">
  <defs>
    <style>
      .cls-1 {
        fill: #929ba3;
      }
    </style>
  </defs>
  <g id="Group_11927" data-name="Group 11927" transform="translate(-1496.75 -267.563)">
    <path id="np_trash_1226757_000000" class="cls-1" d="M35.9,18.136a.559.559,0,0,0-.559-.559H31.144v-1.4A1.678,1.678,0,0,0,29.466,14.5H24.432a1.678,1.678,0,0,0-1.678,1.678v1.4H18.559a.559.559,0,1,0,0,1.119h.861L20.659,32.32h0A2.237,2.237,0,0,0,22.9,34.356h8.11a2.238,2.238,0,0,0,2.237-2.036l1.233-13.625h.861a.559.559,0,0,0,.559-.559ZM23.873,16.178a.559.559,0,0,1,.559-.559h5.034a.559.559,0,0,1,.559.559v1.4H23.873Zm8.25,16.041A1.12,1.12,0,0,1,31,33.237h-8.11a1.12,1.12,0,0,1-1.119-1.018l-1.23-13.524H33.353Z" transform="translate(1479 253.313)"/>
    <path id="np_trash_1226757_000000_-_Outline" data-name="np_trash_1226757_000000 - Outline" class="cls-1" d="M24.432,14.25h5.034a1.93,1.93,0,0,1,1.928,1.928v1.148h3.945a.809.809,0,0,1,0,1.619h-.632l-1.213,13.4a2.476,2.476,0,0,1-2.478,2.264H22.889a2.473,2.473,0,0,1-2.447-2.036h-.01l-.022-.227-1.218-13.4h-.633a.809.809,0,1,1,0-1.619H22.5V16.178A1.93,1.93,0,0,1,24.432,14.25Zm10.907,4.195a.309.309,0,0,0,0-.619H30.894V16.178a1.43,1.43,0,0,0-1.428-1.428H24.432A1.43,1.43,0,0,0,23,16.178v1.648H18.559a.309.309,0,1,0,0,.619h1.089L20.909,32.3a1.977,1.977,0,0,0,1.98,1.809h8.127A1.978,1.978,0,0,0,33,32.3L34.25,18.445ZM24.432,15.369h5.034a.809.809,0,0,1,.809.809v1.648H23.623V16.178A.81.81,0,0,1,24.432,15.369Zm5.343,1.958V16.178a.309.309,0,0,0-.309-.309H24.432a.31.31,0,0,0-.309.309v1.148Zm-9.5,1.119H33.627l-1.255,13.8a1.362,1.362,0,0,1-1.363,1.245H22.894a1.363,1.363,0,0,1-1.368-1.246Zm12.808.5H20.819L22.024,32.2a.865.865,0,0,0,.865.791H31a.866.866,0,0,0,.87-.791Z" transform="translate(1479 253.313)"/>
  </g>
</svg>