<svg xmlns="http://www.w3.org/2000/svg" width="16.612" height="16.05" viewBox="0 0 16.612 16.05"><defs><style>.a{fill:#0d7079;}</style></defs><g transform="translate(-0.973 -0.917)"><path class="a" d="M35.969,46.756l.839.839,1.541-1.535V53.3h1.19V46.06L41.08,47.6l.839-.839-2.975-2.975Z" transform="translate(-29.665 -36.335)"/><path class="a" d="M13.742,12.8h-.3v-1.19h.3a2.68,2.68,0,0,0,.214-5.355h-.512l-.059-.488a4.165,4.165,0,0,0-8.259,0l-.012.488H4.6a2.68,2.68,0,1,0,.214,5.355h.3V12.8h-.3A3.868,3.868,0,0,1,4.043,5.15a5.355,5.355,0,0,1,10.472,0,3.868,3.868,0,0,1-.774,7.652Z" transform="translate(0 0)"/></g></svg>