<svg xmlns="http://www.w3.org/2000/svg" width="21.899" height="21.897" viewBox="0 0 21.899 21.897"><g transform="translate(-10 -10)"><path d="M11.825,40.314V38.489h1.824V36.664H11.825A1.83,1.83,0,0,0,10,38.489v1.825Z" transform="translate(0 -19.366)" fill="#007079"/><path d="M44.6,10H33.649a1.829,1.829,0,0,0-1.824,1.825V17.3H30v1.825h1.825v3.649A1.83,1.83,0,0,0,33.649,24.6H37.3v1.825h1.825V24.6H44.6a1.831,1.831,0,0,0,1.825-1.824V11.825A1.83,1.83,0,0,0,44.6,10Zm0,12.773H33.649V11.825H44.6Z" transform="translate(-14.526)" fill="#007079"/><path d="M50,38.489h1.826v1.825h1.825V38.489a1.831,1.831,0,0,0-1.825-1.825H50Z" transform="translate(-29.051 -19.366)" fill="#007079"/><path d="M30,83.332h3.649v1.825H30Z" transform="translate(-14.526 -53.26)" fill="#007079"/><path d="M51.826,76.668v1.824H50v1.825h1.826a1.831,1.831,0,0,0,1.825-1.825V76.668Z" transform="translate(-29.051 -48.42)" fill="#007079"/><path d="M13.649,78.492H11.825V76.668H10v1.824a1.83,1.83,0,0,0,1.825,1.825h1.824Z" transform="translate(0 -48.42)" fill="#007079"/><path d="M10,56.664h1.825v3.65H10Z" transform="translate(0 -33.891)" fill="#007079"/></g></svg>