<svg xmlns="http://www.w3.org/2000/svg" width="27.932" height="24" viewBox="0 0 27.932 24"><g transform="translate(-98.004 -182)"><g transform="translate(124 207) rotate(180)"><path d="M196.112,11.6a1.145,1.145,0,0,0-1.212,1.212v6.061a1.212,1.212,0,1,0,2.424,0V12.812A1.215,1.215,0,0,0,196.112,11.6Z" transform="translate(-184.112 -3.688)" fill="#ff1243"/><path d="M196.112,6.6a1.1,1.1,0,0,0-.849.364,1.172,1.172,0,0,0,0,1.7,1.172,1.172,0,0,0,1.7,0,1.172,1.172,0,0,0,0-1.7A1.309,1.309,0,0,0,196.112,6.6Z" transform="translate(-184.112 -2.503)" fill="#ff1243"/></g><path d="M7.954,37.031a.987.987,0,0,1-.848-.483.948.948,0,0,1,0-.962L20.092,13.508a.993.993,0,0,1,1.7,0L34.775,35.586a.948.948,0,0,1,0,.962.987.987,0,0,1-.848.483Zm1.7-1.932H32.223L20.941,15.913Z" transform="translate(91.029 168.969)" fill="#ff1243"/></g></svg>